<svg width="50" height="50" viewBox="0 0 50 50" fill="none" xmlns="http://www.w3.org/2000/svg">
<g clip-path="url(#clip0)">
<path d="M39.4341 45.6833H39.434V45.8333C39.434 46.8989 38.5672 47.7666 37.5007 47.7666H12.5007C11.4341 47.7666 10.5674 46.8989 10.5674 45.8333V41.8166H39.4341V45.6833ZM37.5007 -0.15H12.5007C10.1209 -0.15 8.18398 1.78578 8.18398 4.1667V45.8334C8.18398 48.2142 10.1209 50.15 12.5007 50.15H37.5007C39.8805 50.15 41.8174 48.2142 41.8174 45.8333V4.1667C41.8174 1.78578 39.8805 -0.15 37.5007 -0.15ZM39.434 39.4333H10.5674V4.1667C10.5674 3.10106 11.4342 2.2334 12.5007 2.2334H37.5007C38.5673 2.2334 39.434 3.10105 39.434 4.1667V39.4333Z" fill="#03A5C4" stroke="#03A5C4" stroke-width="0.3"/>
<path d="M22.768 5.20826V5.20829C22.7681 5.86688 23.3011 6.39996 23.9597 6.39996H26.043C26.7016 6.39996 27.2347 5.86689 27.2347 5.20826C27.2347 4.54964 26.7016 4.01656 26.043 4.01656H23.9597C23.301 4.01656 22.768 4.54964 22.768 5.20826Z" fill="#03A5C4" stroke="#03A5C4" stroke-width="0.3"/>
<path d="M21.8757 45.9833H28.1257C28.7843 45.9833 29.3174 45.4502 29.3174 44.7916C29.3174 44.133 28.7843 43.6 28.1257 43.6H21.8757C21.2171 43.6 20.684 44.1331 20.684 44.7917C20.684 45.4503 21.2171 45.9833 21.8757 45.9833Z" fill="#03A5C4" stroke="#03A5C4" stroke-width="0.3"/>
<path d="M36.4597 6.39996C37.1178 6.39996 37.6514 5.86642 37.6514 5.20826C37.6514 4.55011 37.1178 4.01656 36.4597 4.01656C35.8015 4.01656 35.268 4.55011 35.268 5.20826C35.268 5.86642 35.8015 6.39996 36.4597 6.39996Z" fill="#03A5C4" stroke="#03A5C4" stroke-width="0.3"/>
<path d="M25.0013 23.0667C27.9569 23.0667 30.3596 20.6629 30.3596 17.7084C30.3596 14.7539 27.9569 12.35 25.0013 12.35C22.0456 12.35 19.643 14.7538 19.643 17.7083C19.643 20.6628 22.0456 23.0667 25.0013 23.0667ZM25.0013 14.7333C26.6417 14.7333 27.9763 16.0679 27.9763 17.7083C27.9763 19.3487 26.6417 20.6833 25.0013 20.6833C23.3609 20.6833 22.0263 19.3487 22.0263 17.7083C22.0263 16.068 23.3609 14.7333 25.0013 14.7333Z" fill="#03A5C4" stroke="#03A5C4" stroke-width="0.3"/>
<path d="M32.201 25.9787L32.201 25.9786C30.5262 24.9917 27.911 23.8084 25 23.8084C22.089 23.8084 19.4737 24.9918 17.799 25.9786L17.799 25.9787C16.3614 26.827 15.475 28.4687 15.475 30.2572V30.9244C15.475 32.3248 16.5326 33.4833 17.8568 33.4833H32.1432C33.4674 33.4833 34.525 32.3248 34.525 30.9244V30.2572C34.525 28.4687 33.6386 26.827 32.201 25.9787ZM32.1417 30.9245C32.1417 31.0032 32.1194 31.0572 32.0995 31.0888C32.0969 31.093 32.0944 31.0967 32.092 31.1H17.9081C17.9057 31.0967 17.9031 31.093 17.9005 31.0888C17.8806 31.0571 17.8583 31.0032 17.8583 30.9245V30.2573C17.8583 29.3092 18.3179 28.4396 19.0092 28.0315C20.4401 27.1887 22.6342 26.1917 25 26.1917C27.3658 26.1917 29.5599 27.1888 30.9908 28.0315C31.6821 28.4396 32.1417 29.3091 32.1417 30.2573V30.9245Z" fill="#03A5C4" stroke="#03A5C4" stroke-width="0.3"/>
</g>
<defs>
<clipPath id="clip0">
<rect width="50" height="50" fill="white"/>
</clipPath>
</defs>
</svg>
