<svg width="50" height="50" viewBox="0 0 50 50" fill="none" xmlns="http://www.w3.org/2000/svg">
<g clip-path="url(#clip0)">
<path d="M47.5772 8.94088H2.42269V4.54549C2.42269 3.37545 3.37437 2.4228 4.54539 2.4228H45.4545C46.6256 2.4228 47.5772 3.37544 47.5772 4.54549V8.94088ZM45.4546 -0.15H4.54549C1.95689 -0.15 -0.15 1.95566 -0.15 4.54549V45.4546C-0.15 48.0443 1.95688 50.1501 4.54549 50.1501H45.4546C48.0432 50.1501 50.1501 48.0444 50.1501 45.4546V4.54549C50.15 1.95567 48.0432 -0.15 45.4546 -0.15ZM47.5773 45.4546C47.5773 46.6247 46.6256 47.5773 45.4546 47.5773H4.54549C3.37437 47.5773 2.4228 46.6247 2.4228 45.4546V11.5137H47.5773V45.4546Z" fill="#03A5C4" stroke="#03A5C4" stroke-width="0.3"/>
<path d="M5.68132 6.96821C6.39178 6.96821 6.96772 6.39227 6.96772 5.68181C6.96772 4.97135 6.39178 4.39541 5.68132 4.39541C4.97086 4.39541 4.39492 4.97135 4.39492 5.68181C4.39492 6.39227 4.97086 6.96821 5.68132 6.96821Z" fill="#03A5C4" stroke="#03A5C4" stroke-width="0.3"/>
<path d="M10.2282 6.96821C10.9387 6.96821 11.5146 6.39227 11.5146 5.68181C11.5146 4.97135 10.9387 4.39541 10.2282 4.39541C9.51774 4.39541 8.9418 4.97135 8.9418 5.68181C8.9418 6.39227 9.51774 6.96821 10.2282 6.96821Z" fill="#03A5C4" stroke="#03A5C4" stroke-width="0.3"/>
<path d="M14.7731 6.96821C15.4836 6.96821 16.0595 6.39227 16.0595 5.68181C16.0595 4.97135 15.4836 4.39541 14.7731 4.39541C14.0627 4.39541 13.4867 4.97135 13.4867 5.68181C13.4867 6.39227 14.0627 6.96821 14.7731 6.96821Z" fill="#03A5C4" stroke="#03A5C4" stroke-width="0.3"/>
<path d="M15.9092 36.5136C20.5662 36.5136 24.3843 33.0407 25.0165 28.559H26.1365C26.8475 28.559 27.4229 27.9836 27.4229 27.2726C27.4229 20.9242 22.2577 15.7589 15.9092 15.7589C15.1983 15.7589 14.6228 16.3344 14.6228 17.0453V18.1653C10.1404 18.7978 6.66836 22.6167 6.66836 27.2727C6.66836 32.3682 10.8127 36.5136 15.9092 36.5136ZM17.1956 25.9863V18.4244C21.098 18.9886 24.1923 22.0839 24.7575 25.9863H17.1956ZM9.24105 27.2727C9.24105 24.0386 11.5613 21.3521 14.6229 20.7493V27.2727C14.6229 27.9837 15.1984 28.5591 15.9093 28.5591H22.4327C21.83 31.6207 19.1434 33.9409 15.9092 33.9409C12.2323 33.9409 9.24105 30.9497 9.24105 27.2727Z" fill="#03A5C4" stroke="#03A5C4" stroke-width="0.3"/>
<path d="M32.9547 29.6954H42.0455C42.7565 29.6954 43.3319 29.12 43.3319 28.409C43.3319 27.698 42.7566 27.1227 42.0456 27.1227H32.9548C32.2438 27.1227 31.6684 27.6981 31.6684 28.4091C31.6684 29.1201 32.2437 29.6954 32.9547 29.6954Z" fill="#03A5C4" stroke="#03A5C4" stroke-width="0.3"/>
<path d="M28.4098 36.5136H42.0462C42.7572 36.5136 43.3326 35.9382 43.3326 35.2272C43.3326 34.5163 42.7572 33.9408 42.0462 33.9408H28.4098C27.6989 33.9408 27.1234 34.5163 27.1234 35.2272C27.1234 35.9383 27.6989 36.5136 28.4098 36.5136Z" fill="#03A5C4" stroke="#03A5C4" stroke-width="0.3"/>
<path d="M42.0462 40.7592H28.4098C27.6989 40.7592 27.1234 41.3346 27.1234 42.0456C27.1234 42.7565 27.6989 43.332 28.4098 43.332H42.0462C42.7572 43.332 43.3326 42.7565 43.3326 42.0456C43.3325 41.3346 42.7572 40.7592 42.0462 40.7592Z" fill="#03A5C4" stroke="#03A5C4" stroke-width="0.3"/>
</g>
<defs>
<clipPath id="clip0">
<rect width="50" height="50" fill="white"/>
</clipPath>
</defs>
</svg>
