<svg width="21" height="13" viewBox="0 0 21 13" fill="none" xmlns="http://www.w3.org/2000/svg">
<path d="M3.06269 7.312V9.92H4.08669V7.312H6.61469V6.288H4.08669V3.84H3.06269V6.288H0.534688V7.312H3.06269ZM9.62956 2.848V12H10.7496V0.959999H10.4296L7.50156 3.04L8.10956 3.904L9.62956 2.848ZM17.1516 12.16C19.4716 12.16 20.9916 9.952 20.9916 6.64C20.9916 3.328 19.4716 1.12 17.1516 1.12C14.8316 1.12 13.3116 3.328 13.3116 6.64C13.3116 9.952 14.8316 12.16 17.1516 12.16ZM17.1516 11.056C15.4876 11.056 14.5116 9.408 14.5116 6.64C14.5116 3.888 15.4876 2.224 17.1516 2.224C18.8156 2.224 19.7916 3.888 19.7916 6.64C19.7916 9.392 18.8156 11.056 17.1516 11.056Z" fill="#1A1B1F"/>
</svg>
