<svg width="24" height="24" viewBox="0 0 24 24" fill="none" xmlns="http://www.w3.org/2000/svg">
<path fill-rule="evenodd" clip-rule="evenodd" d="M12.0009 20.9031C7.09325 20.9031 3.09766 16.9075 3.09766 11.9999C3.09766 7.09228 7.09325 3.09668 12.0009 3.09668C16.9085 3.09668 20.9041 7.09228 20.9041 11.9999C20.9041 16.9075 16.9085 20.9031 12.0009 20.9031ZM15.857 14.4324C16.25 14.8254 16.25 15.4627 15.857 15.8557C15.464 16.2488 14.8267 16.2488 14.4337 15.8557L12.0252 13.4473L9.61666 15.8558C9.22362 16.2488 8.58637 16.2488 8.19333 15.8558C7.80028 15.4628 7.80028 14.8255 8.19333 14.4325L10.6019 12.0239L8.19287 9.61494C7.79983 9.22189 7.79983 8.58464 8.19287 8.1916C8.58592 7.79855 9.22317 7.79855 9.61621 8.1916L12.0252 10.6006L14.4341 8.19168C14.8272 7.79863 15.4644 7.79863 15.8575 8.19168C16.2505 8.58472 16.2505 9.22197 15.8575 9.61501L13.4485 12.0239L15.857 14.4324Z" fill="#FA474F"/>
</svg>
