<svg width="60" height="70" viewBox="0 0 60 70" fill="none" xmlns="http://www.w3.org/2000/svg">
<path fill-rule="evenodd" clip-rule="evenodd" d="M7.09798 54.6413C7.13828 54.6746 7.17871 54.7077 7.21929 54.7408C7.25986 54.7739 7.30051 54.8068 7.34124 54.8396L7.09798 54.6413ZM40.1993 50.6656C40.4166 50.8428 40.7384 50.8058 40.9062 50.5813C48.4005 40.5517 46.7172 26.3037 36.9217 18.316C36.919 18.3138 36.9163 18.3117 36.9137 18.3095C36.7029 18.1377 36.3937 18.1728 36.2218 18.3836L36.2148 18.3921C36.0415 18.6046 36.0772 18.9177 36.2897 19.091V19.091C45.6627 26.7341 47.2781 40.3641 40.1177 49.9659C39.9551 50.184 39.9885 50.4937 40.1993 50.6656V50.6656Z" fill="#03A5C4"/>
<path d="M3.38727 12.234C5.15527 12.234 6.37727 11.142 6.37727 9.543C6.37727 8.334 5.68827 7.476 4.03727 6.748C3.14027 6.345 2.68527 6.059 2.68527 5.526C2.68527 5.045 3.04927 4.733 3.62127 4.733C4.20627 4.733 4.67427 5.032 5.15527 5.669L6.41627 4.525C5.64927 3.576 4.72627 3.108 3.62127 3.108C1.95727 3.108 0.787266 4.174 0.787266 5.708C0.787266 6.917 1.48927 7.749 3.10127 8.464C4.14127 8.919 4.47927 9.218 4.47927 9.699C4.47927 10.219 4.03727 10.57 3.37427 10.57C2.63327 10.57 2.04827 10.167 1.59327 9.361L0.267266 10.466C0.930266 11.61 2.03527 12.234 3.38727 12.234ZM10.439 3.134L7.00695 12H9.02195L9.54195 10.531H12.545L13.078 12H15.08L11.648 3.134H10.439ZM11.96 8.893H10.127L11.05 6.332L11.96 8.893ZM14.4957 3.29L17.8627 12.156H18.8637L22.2437 3.29H20.2937L18.3697 8.477L16.4717 3.29H14.4957ZM23.2895 3.29V12H28.3335V10.219H25.1875V8.451H27.4365V6.67H25.1875V5.071H28.2685V3.29H23.2895ZM32.5769 10.648V12H38.6089V10.219H34.4879C34.4879 9.79 35.0989 9.374 36.1519 8.763C37.9069 7.775 38.6089 6.891 38.6089 5.734C38.6089 4.187 37.3609 3.108 35.5929 3.108C33.9679 3.108 32.8499 4.005 32.4209 5.656L34.1109 6.124C34.3449 5.253 34.8389 4.811 35.5799 4.811C36.2559 4.811 36.7109 5.188 36.7109 5.76C36.7109 6.358 36.2299 6.787 34.9429 7.515C33.4219 8.347 32.5769 9.244 32.5769 10.648ZM43.2812 12.182C45.4132 12.182 46.7782 10.401 46.7782 7.632C46.7782 4.876 45.4132 3.108 43.2812 3.108C41.1622 3.108 39.7842 4.876 39.7842 7.632C39.7842 10.388 41.1622 12.182 43.2812 12.182ZM43.2812 10.401C42.3322 10.401 41.7862 9.426 41.7862 7.645C41.7862 5.864 42.3322 4.889 43.2812 4.889C44.2302 4.889 44.7762 5.877 44.7762 7.645C44.7762 9.413 44.2562 10.401 43.2812 10.401ZM54.1743 3.29L50.4433 12H52.1333L55.8643 3.29H54.1743ZM49.9623 7.697C51.2753 7.697 52.3023 6.696 52.3023 5.396C52.3023 4.096 51.2753 3.108 49.9623 3.108C48.6493 3.108 47.6223 4.096 47.6223 5.383C47.6223 6.696 48.6493 7.697 49.9623 7.697ZM49.9623 6.319C49.4553 6.319 49.0783 5.929 49.0783 5.396C49.0783 4.889 49.4553 4.486 49.9623 4.486C50.4693 4.486 50.8463 4.889 50.8463 5.396C50.8463 5.929 50.4693 6.319 49.9623 6.319ZM56.3323 12.182C57.6453 12.182 58.6723 11.181 58.6723 9.881C58.6723 8.581 57.6453 7.593 56.3323 7.593C55.0193 7.593 53.9923 8.581 53.9923 9.868C53.9923 11.181 55.0193 12.182 56.3323 12.182ZM56.3323 10.804C55.8253 10.804 55.4483 10.414 55.4483 9.881C55.4483 9.374 55.8253 8.971 56.3323 8.971C56.8393 8.971 57.2163 9.374 57.2163 9.881C57.2163 10.414 56.8393 10.804 56.3323 10.804Z" fill="#03A5C4"/>
</svg>
