<svg width="24" height="24" viewBox="0 0 24 24" fill="none" xmlns="http://www.w3.org/2000/svg">
<path d="M3.0957 11.9999C3.0957 16.9075 7.0913 20.9031 11.9989 20.9031C16.9065 20.9031 20.9022 16.9075 20.9022 11.9999C20.9022 7.09228 16.9065 3.09668 11.9989 3.09668C7.0913 3.09668 3.0957 7.09228 3.0957 11.9999ZM7.46045 11.5656C7.85133 11.1747 8.48107 11.1747 8.85021 11.5656L10.1314 12.8468C10.3051 13.0205 10.6092 13.0205 10.7829 12.8468L15.1477 8.48205C15.5385 8.09117 16.1683 8.09117 16.5374 8.48205C16.9283 8.87294 16.9283 9.50267 16.5374 9.8718L11.152 15.2572C10.7611 15.6481 10.1314 15.6481 9.76228 15.2572L7.46045 12.9553C7.06958 12.5645 7.06958 11.9565 7.46045 11.5656Z" fill="#03C47F"/>
</svg>
