<svg width="39" height="39" viewBox="0 0 39 39" fill="none" xmlns="http://www.w3.org/2000/svg">
<path fill-rule="evenodd" clip-rule="evenodd" d="M16.294 19.3125L15.8982 18.9168C13.8599 16.8785 11.8193 14.8427 9.78461 12.8006C8.98051 11.9933 8.81815 11.0559 9.3017 10.1404C9.87297 9.05883 11.3042 8.69439 12.3132 9.38389C12.5269 9.53005 12.7235 9.70646 12.9073 9.8896C14.9195 11.8958 16.9276 13.9061 18.937 15.9155L19.314 16.2925L19.6878 15.9187C21.7259 13.8805 23.7625 11.8408 25.8033 9.80515C26.6289 8.98175 27.5692 8.81243 28.4953 9.30535C29.5571 9.87063 29.9256 11.2864 29.2589 12.2867C29.1083 12.5132 28.922 12.7203 28.7293 12.9137C26.7332 14.9165 24.7326 16.9145 22.7332 18.9139C22.6176 19.0295 22.5021 19.145 22.3343 19.3128L22.6862 19.6647C24.7343 21.7128 26.7843 23.759 28.8292 25.81C29.6506 26.6336 29.8148 27.5747 29.3173 28.5038C28.7582 29.5476 27.3606 29.92 26.3674 29.2768C26.139 29.1291 25.9285 28.9458 25.7354 28.7533C23.7222 26.7478 21.7146 24.7373 19.7052 22.7279L19.3122 22.3349L18.9549 22.6922C16.907 24.7401 14.8613 26.79 12.8101 28.8344C11.991 29.6509 11.0423 29.8118 10.1144 29.311C9.06047 28.7421 8.70599 27.318 9.38052 26.3214C9.52554 26.1072 9.70129 25.9097 9.88458 25.7261C11.8904 23.7138 13.9006 21.7059 15.9096 19.6969L16.294 19.3125Z" fill="#B1B8C8"/>
</svg>
