<svg width="54" height="54" viewBox="0 0 54 54" fill="none" xmlns="http://www.w3.org/2000/svg">
<path d="M27 0C12.15 0 0 12.15 0 27C0 41.85 12.15 54 27 54C41.85 54 54 41.85 54 27C54 12.15 41.85 0 27 0ZM27 52.3125C13.1625 52.3125 1.6875 40.8375 1.6875 27C1.6875 13.1625 13.1625 1.6875 27 1.6875C40.8375 1.6875 52.3125 13.1625 52.3125 27C52.3125 40.8375 40.8375 52.3125 27 52.3125Z" fill="#03A5C4"/>
<path d="M15.5238 25.3126C15.8613 24.9751 16.5363 24.3001 17.2113 24.3001C17.8863 23.9626 18.5613 23.9626 19.2363 24.3001C19.9113 24.3001 20.5863 24.6376 21.2613 25.3126C21.9363 25.6501 22.2738 26.3251 22.6113 27.0001H25.9863C25.6488 25.3126 24.2988 23.6251 22.9488 22.6126C21.2613 21.6001 19.5738 20.9251 17.5488 21.2626C15.8613 20.9251 13.8363 21.9376 12.8238 23.2876C11.4738 24.6376 10.7988 26.6626 10.7988 28.3501C10.7988 30.3751 11.4738 32.0626 12.8238 33.7501C14.1738 35.1001 15.8613 36.1126 17.5488 36.4501C19.5738 36.7876 21.2613 36.1126 22.9488 35.1001C24.6363 33.7501 25.6488 32.0626 25.9863 30.3751H22.6113C21.9363 31.3876 21.2613 32.0626 20.2488 32.7376C19.2363 33.0751 17.8863 33.0751 16.8738 32.7376C16.1988 32.0626 15.5238 31.7251 15.1863 31.0501C14.5113 30.7126 14.1738 30.0376 14.1738 29.3626C14.1738 28.6876 14.1738 28.0126 14.1738 27.3376C14.1738 26.6626 14.8488 25.9876 15.5238 25.3126Z" fill="#03A5C4"/>
<path d="M42.8656 25.65C42.1906 24.3 41.1781 22.95 40.1656 21.9375C38.8156 20.925 37.4656 20.5875 35.7781 20.5875H35.1031C33.7531 20.5875 32.4031 21.2625 31.3906 21.9375V13.5H28.0156V35.775H31.0531V35.1C32.0656 35.775 33.4156 36.1125 34.4281 36.45C35.7781 36.45 36.7906 36.45 38.1406 36.1125C38.8156 35.775 39.8281 35.4375 40.5031 34.7625C41.8531 33.75 42.5281 32.4 42.8656 30.7125C43.2031 28.6875 43.2031 27.3375 42.8656 25.65ZM39.8281 30.0375C39.4906 30.7125 39.1531 31.05 38.8156 31.3875C38.4781 31.725 37.8031 32.0625 37.4656 32.4C36.7906 32.7375 36.4531 32.7375 35.7781 32.7375C35.1031 32.7375 34.7656 32.7375 34.0906 32.4C33.4156 32.4 32.7406 32.0625 32.4031 31.725C32.0656 31.3875 31.7281 30.7125 31.3906 30.0375C31.3906 29.7 31.0531 29.025 31.0531 28.35C31.0531 27.3375 31.3906 25.9875 32.4031 25.3125C33.0781 24.6375 34.4281 23.9625 35.4406 23.9625C36.4531 23.9625 37.8031 24.3 38.4781 25.3125C39.1531 25.9875 39.8281 27.3375 39.8281 28.35C40.1656 29.025 39.8281 29.7 39.8281 30.0375Z" fill="#03A5C4"/>
</svg>
