<svg width="54" height="54" viewBox="0 0 54 54" fill="none" xmlns="http://www.w3.org/2000/svg">
<path d="M27 0C12.15 0 0 12.15 0 27C0 41.85 12.15 54 27 54C41.85 54 54 41.85 54 27C54 12.15 41.85 0 27 0ZM27 52.3125C13.1625 52.3125 1.6875 40.8375 1.6875 27C1.6875 13.1625 13.1625 1.6875 27 1.6875C40.8375 1.6875 52.3125 13.1625 52.3125 27C52.3125 40.8375 40.8375 52.3125 27 52.3125Z" fill="#03A5C4"/>
<path d="M27 13.5C29.3625 13.5 31.05 13.5 32.4 13.5C33.75 13.5 34.7625 13.8375 35.775 14.175C36.7875 14.5125 37.4625 15.1875 38.1375 15.8625C38.8125 16.5375 39.15 17.2125 39.825 18.225C40.1625 19.2375 40.5 20.25 40.5 21.6C40.5 22.95 40.5 24.975 40.5 27C40.5 29.3625 40.5 31.05 40.5 32.4C40.5 33.75 40.1625 34.7625 39.825 35.775C39.4875 36.7875 38.8125 37.4625 38.1375 38.1375C37.4625 38.8125 36.7875 39.15 35.775 39.825C34.7625 40.1625 33.75 40.5 32.4 40.5C31.05 40.5 29.025 40.5 27 40.5C24.6375 40.5 22.95 40.5 21.6 40.5C20.25 40.5 19.2375 40.1625 18.225 39.825C17.2125 39.4875 16.5375 38.8125 15.8625 38.1375C15.1875 37.4625 14.85 36.7875 14.175 35.775C13.8375 34.7625 13.5 33.75 13.5 32.4C13.5 31.05 13.5 29.025 13.5 27C13.5 24.6375 13.5 22.95 13.5 21.6C13.5 20.25 13.8375 19.2375 14.175 18.225C14.5125 17.2125 15.1875 16.5375 15.8625 15.8625C16.5375 15.1875 17.2125 14.85 18.225 14.175C19.2375 13.8375 20.25 13.5 21.6 13.5C22.95 13.5 24.6375 13.5 27 13.5ZM27 15.525C24.6375 15.525 22.6125 15.525 21.2625 15.525C20.25 15.525 19.575 15.525 18.5625 15.8625C17.2125 16.5375 16.5375 17.2125 15.8625 18.5625C15.525 19.575 15.525 20.25 15.525 21.2625C15.525 22.6125 15.525 24.6375 15.525 27C15.525 29.3625 15.525 31.3875 15.525 32.7375C15.525 33.75 15.8625 34.425 15.8625 35.4375C16.5375 36.7875 17.2125 37.4625 18.5625 38.1375C19.2375 38.475 20.25 38.475 21.2625 38.475C22.6125 38.475 24.6375 38.475 27 38.475C29.3625 38.475 31.3875 38.475 32.7375 38.475C33.75 38.475 34.425 38.1375 35.4375 38.1375C36.7875 37.4625 37.4625 36.7875 38.1375 35.4375C38.475 34.7625 38.475 33.75 38.475 32.7375C38.475 31.3875 38.475 29.3625 38.475 27C38.475 24.6375 38.475 22.6125 38.475 21.2625C38.475 20.25 38.1375 19.575 38.1375 18.5625C37.4625 17.2125 36.7875 16.5375 35.4375 15.8625C34.425 15.525 33.75 15.525 32.7375 15.525C31.3875 15.525 29.3625 15.525 27 15.525ZM27 32.4C28.35 32.4 29.7 31.725 30.7125 30.7125C31.725 29.7 32.4 28.35 32.4 27C32.4 25.65 31.725 24.3 30.7125 23.2875C29.7 22.275 28.35 21.6 27 21.6C25.65 21.6 24.3 22.275 23.2875 23.2875C22.275 24.3 21.6 25.65 21.6 27C21.6 28.35 22.275 29.7 23.2875 30.7125C24.3 31.725 25.65 32.4 27 32.4ZM27 20.25C29.025 20.25 30.375 20.925 31.725 22.275C33.075 23.625 33.75 24.975 33.75 27C33.75 29.025 33.075 30.375 31.725 31.725C30.375 33.075 29.025 33.75 27 33.75C24.975 33.75 23.625 33.075 22.275 31.725C20.925 30.375 20.25 29.025 20.25 27C20.25 24.975 20.925 23.625 22.275 22.275C23.625 20.925 24.975 20.25 27 20.25ZM35.775 19.9125C35.775 20.25 35.775 20.5875 35.4375 20.925C35.1 21.2625 34.7625 21.2625 34.425 21.2625C34.0875 21.2625 33.75 21.2625 33.4125 20.925C33.075 20.5875 32.4 20.25 32.4 19.9125C32.4 19.575 32.4 18.9 32.7375 18.9C33.075 18.9 33.4125 18.5625 33.75 18.5625C34.0875 18.5625 34.425 18.5625 34.7625 18.9C35.1 19.2375 35.775 19.575 35.775 19.9125Z" fill="#03A5C4"/>
</svg>
