<svg width="54" height="54" viewBox="0 0 54 54" fill="none" xmlns="http://www.w3.org/2000/svg">
<path d="M27 0C12.15 0 0 12.15 0 27C0 41.85 12.15 54 27 54C41.85 54 54 41.85 54 27C54 12.15 41.85 0 27 0ZM27 52.3125C13.1625 52.3125 1.6875 40.8375 1.6875 27C1.6875 13.1625 13.1625 1.6875 27 1.6875C40.8375 1.6875 52.3125 13.1625 52.3125 27C52.3125 40.8375 40.8375 52.3125 27 52.3125Z" fill="#03A5C4"/>
<path d="M40.5043 28.0121V37.1246H35.1043V28.3496C35.1043 25.9871 34.4293 24.6371 32.4043 24.6371C31.0543 24.6371 30.0418 25.6496 29.7043 26.6621C29.7043 26.9996 29.3668 27.3371 29.3668 28.0121V37.1246H23.9668C23.9668 37.1246 23.9668 22.2746 23.9668 20.9246H29.3668V23.2871C30.3793 21.9371 31.3918 20.5871 34.4293 20.5871C38.1418 20.5871 40.5043 22.9496 40.5043 28.0121ZM18.5668 13.1621C16.8793 13.1621 15.5293 14.5121 15.5293 15.8621C15.5293 17.5496 16.5418 18.5621 18.5668 18.5621C20.5918 18.5621 21.6043 17.2121 21.6043 15.8621C21.2668 14.1746 20.2543 13.1621 18.5668 13.1621ZM15.5293 37.1246H20.9293V20.9246H15.5293V37.1246Z" fill="#03A5C4"/>
</svg>
