<svg width="98" height="14" viewBox="0 0 98 14" fill="none" xmlns="http://www.w3.org/2000/svg">
<path d="M25.08 2.72V11H25.92V5.048L28.74 9.02H28.98L31.8 4.988V11H32.64V2.72H32.4L28.884 7.772L25.32 2.72H25.08ZM38.3348 11.12C40.5428 11.12 42.3548 9.236 42.3548 6.98C42.3548 4.688 40.5428 2.84 38.3348 2.84C36.1268 2.84 34.3148 4.7 34.3148 6.98C34.3148 9.272 36.1268 11.12 38.3348 11.12ZM38.3348 10.292C36.5588 10.292 35.2148 8.864 35.2148 6.98C35.2148 5.096 36.5588 3.668 38.3348 3.668C40.1108 3.668 41.4548 5.096 41.4548 6.98C41.4548 8.864 40.1108 10.292 38.3348 10.292ZM45.9612 11.12C47.3652 11.12 48.3852 10.196 48.3852 8.876C48.3852 7.808 47.7132 7.052 46.2612 6.488C45.1212 6.044 44.6772 5.576 44.6772 4.856C44.6772 4.1 45.1932 3.62 46.0092 3.62C46.6452 3.62 47.1732 3.92 47.6532 4.592L48.3012 4.064C47.7012 3.248 46.9452 2.84 46.0212 2.84C44.7132 2.84 43.8372 3.68 43.8372 4.928C43.8372 5.972 44.4492 6.692 45.9012 7.256C47.0532 7.724 47.5452 8.216 47.5452 8.948C47.5452 9.8 46.9212 10.352 45.9732 10.352C45.1932 10.352 44.5212 9.932 43.9572 9.08L43.3092 9.608C43.9212 10.58 44.8692 11.12 45.9612 11.12ZM51.6211 3.74V11H52.4611V3.74H55.1011V2.96H48.9811V3.74H51.6211ZM58.8183 2.96V11H63.0183V10.22H59.6583V7.22H62.1783V6.44H59.6583V3.74H62.9583V2.96H58.8183ZM64.8183 2.96V11H65.6583V7.808H66.7383C68.3463 7.808 69.4983 6.788 69.4983 5.384C69.4983 3.98 68.3463 2.96 66.7383 2.96H64.8183ZM66.7383 7.028H65.6583V3.74H66.7383C67.8903 3.74 68.6583 4.376 68.6583 5.372C68.6583 6.38 67.8903 7.028 66.7383 7.028ZM71.123 2.96V11H71.963V7.808H73.043C74.651 7.808 75.803 6.788 75.803 5.384C75.803 3.98 74.651 2.96 73.043 2.96H71.123ZM73.043 7.028H71.963V3.74H73.043C74.195 3.74 74.963 4.376 74.963 5.372C74.963 6.38 74.195 7.028 73.043 7.028ZM80.0644 2.96V11H84.1444V10.22H80.9044V2.96H80.0644ZM85.7597 2.96V11H89.8397V10.22H86.5997V2.96H85.7597ZM94.2442 11.12C95.4922 11.12 96.5482 10.58 97.3042 9.704L96.7042 9.188C96.1402 9.86 95.3122 10.292 94.3042 10.292C92.4802 10.292 91.1602 8.888 91.1602 6.968C91.1602 5.06 92.4802 3.668 94.2562 3.668C95.2162 3.668 96.0442 4.064 96.6682 4.784L97.3042 4.244C96.5482 3.38 95.4802 2.84 94.2802 2.84C92.0722 2.84 90.2602 4.676 90.2602 7.028C90.2602 9.332 91.9882 11.12 94.2442 11.12Z" fill="#414052"/>
<path fill-rule="evenodd" clip-rule="evenodd" d="M0.929913 11.832C0.109569 11.4316 -0.226026 10.443 0.159293 9.61702L3.81355 1.94593C4.21129 1.12 5.19322 0.769619 6.02598 1.17006C6.84632 1.57051 7.18192 2.55913 6.7966 3.38505L3.14234 11.0561C2.74461 11.8946 1.75026 12.2325 0.929913 11.832ZM15 10.407C15 9.52928 14.2933 8.81773 13.4215 8.81773C12.5497 8.81773 11.8429 9.52928 11.8429 10.407C11.8429 11.2847 12.5497 11.9963 13.4215 11.9963C14.2933 11.9963 15 11.2847 15 10.407ZM6.77173 11.8278C5.95139 11.4273 5.61579 10.4387 6.00111 9.61279L9.65535 1.94169C10.0531 1.11576 11.035 0.76538 11.8678 1.16582C12.6881 1.56627 13.0237 2.55489 12.6384 3.38081L8.98414 11.0519C8.57399 11.8904 7.59206 12.2282 6.77171 11.8278H6.77173Z" fill="url(#paint0_linear)"/>
<defs>
<linearGradient id="paint0_linear" x1="0.929913" y1="11.6433" x2="12.6898" y2="3.55026" gradientUnits="userSpaceOnUse">
<stop stop-color="#62C4DF"/>
<stop offset="1" stop-color="#4FC3C0"/>
</linearGradient>
</defs>
</svg>
