<svg width="28" height="35" viewBox="0 0 28 35" fill="none" xmlns="http://www.w3.org/2000/svg">
<path fill-rule="evenodd" clip-rule="evenodd" d="M20.7764 0.779276C19.0882 0.849862 17.0427 1.90036 15.8321 3.31269C14.7438 4.56695 13.7939 6.56868 14.05 8.48802C15.9347 8.635 17.8552 7.53425 19.0284 6.1212C20.1993 4.7056 20.992 2.74108 20.7764 0.779276ZM20.303 34.182C22.5903 34.1395 24.039 32.1131 25.4395 30.0741C26.9741 27.8407 27.6517 25.6753 27.7528 25.3523C27.7584 25.3344 27.7622 25.3221 27.7643 25.3159C27.7633 25.3154 27.7605 25.3142 27.7559 25.3124C27.5358 25.2233 23.3023 23.5086 23.2602 18.5522C23.2188 14.4593 26.4954 12.4232 26.8562 12.1991C26.8687 12.1913 26.8777 12.1857 26.883 12.1822C24.9108 9.30914 21.8398 8.91519 20.7456 8.87019C19.1473 8.70919 17.5967 9.31779 16.3298 9.81505C15.5246 10.1311 14.8341 10.4021 14.3186 10.4021C13.745 10.4021 13.0355 10.1216 12.2393 9.80681C11.1971 9.3948 10.0064 8.92405 8.77708 8.94658C5.92974 8.98903 3.3022 10.5973 1.83585 13.1393C-1.12531 18.2578 1.07647 25.8423 3.96124 29.9925C5.37329 32.0223 7.05234 34.3067 9.26048 34.2245C10.2464 34.1851 10.9481 33.8874 11.6737 33.5796C12.5124 33.2239 13.3831 32.8545 14.7616 32.8545C16.0746 32.8545 16.9049 33.2125 17.7037 33.5567C18.4676 33.886 19.2025 34.2027 20.303 34.182Z" fill="white"/>
</svg>
