<svg width="70" height="50" viewBox="0 0 70 50" fill="none" xmlns="http://www.w3.org/2000/svg">
<path fill-rule="evenodd" clip-rule="evenodd" d="M4.33959 49.2364C0.511324 47.4162 -1.05479 42.9225 0.743368 39.1683L17.7966 4.29968C19.6527 0.54546 24.235 -1.04718 28.1212 0.773015C31.9495 2.59322 33.5156 7.08693 31.7175 10.8411L14.6643 45.7097C12.8082 49.5209 8.16786 51.0567 4.33959 49.2364ZM70 42.7591C70 38.7694 66.7019 35.5351 62.6335 35.5351C58.5652 35.5351 55.2671 38.7694 55.2671 42.7591C55.2671 46.7487 58.5652 49.983 62.6335 49.983C66.7019 49.983 70 46.7487 70 42.7591ZM31.6014 49.2171C27.7731 47.3969 26.207 42.9032 28.0052 39.149L45.0583 4.28041C46.9144 0.526192 51.4967 -1.06645 55.383 0.753747C59.2112 2.57395 60.7773 7.06766 58.9792 10.8219L41.926 45.6905C40.0119 49.5016 35.4296 51.0373 31.6013 49.2171H31.6014Z" fill="url(#paint0_linear)"/>
<defs>
<linearGradient id="paint0_linear" x1="4.33959" y1="48.3785" x2="58.2822" y2="10.266" gradientUnits="userSpaceOnUse">
<stop stop-color="#62C4DF"/>
<stop offset="1" stop-color="#4FC3C0"/>
</linearGradient>
</defs>
</svg>
