<svg width="86" height="50" viewBox="0 0 86 50" fill="none" xmlns="http://www.w3.org/2000/svg">
<path d="M44.8786 3.04499L81.3179 18.2605V26.7395L44.8786 41.955V34.0459L70.9645 23.1538L72.5297 22.5L70.9645 21.8462L44.8786 10.9541V3.04499ZM44.1953 2V11.4293L70.7082 22.5L44.1953 33.5707V43L81.9992 27.2147V17.7853L44.1953 2Z" fill="url(#paint0_linear)"/>
<path d="M5.63867 22.2034L7.94996 14.7471H10.6255L12.9173 22.2034H10.7264L10.3425 20.8161H7.94996L7.56612 22.2034H5.63867ZM9.15191 16.4788L8.35438 19.3469H9.93915L9.15191 16.4788Z" fill="black"/>
<path d="M16.4802 22.3289C15.2484 22.3289 14.313 21.9887 13.6739 21.3073C13.0349 20.6258 12.7148 19.6978 12.7148 18.5231V18.4391C12.7148 17.3059 13.0616 16.3885 13.7542 15.6858C14.4468 14.9831 15.3287 14.6323 16.3989 14.6323C17.3683 14.6323 18.1483 14.8704 18.7411 15.3467C19.3328 15.8229 19.6693 16.5405 19.7506 17.5005H17.6204C17.5391 16.7149 17.1357 16.3226 16.4092 16.3226C15.9379 16.3226 15.5674 16.5065 15.2988 16.8754C15.0292 17.2443 14.8954 17.762 14.8954 18.4296V18.5135C14.8954 19.1875 15.0302 19.7074 15.2988 20.0731C15.5684 20.4377 15.9482 20.6205 16.439 20.6205C16.8095 20.6205 17.1141 20.5185 17.3529 20.3133C17.5916 20.1081 17.7346 19.8041 17.782 19.4012H19.8411C19.7743 20.3463 19.4377 21.0713 18.8316 21.5752C18.2265 22.0769 17.4424 22.3289 16.4802 22.3289Z" fill="black"/>
<path d="M23.8396 22.3289C22.6078 22.3289 21.6724 21.9887 21.0333 21.3073C20.3943 20.6258 20.0742 19.6978 20.0742 18.5231V18.4391C20.0742 17.3059 20.421 16.3885 21.1136 15.6858C21.8061 14.9831 22.688 14.6323 23.7583 14.6323C24.7277 14.6323 25.5077 14.8704 26.1004 15.3467C26.6922 15.8229 27.0287 16.5405 27.11 17.5005H24.9798C24.8985 16.7149 24.4951 16.3226 23.7686 16.3226C23.2973 16.3226 22.9268 16.5065 22.6582 16.8754C22.3886 17.2443 22.2548 17.762 22.2548 18.4296V18.5135C22.2548 19.1875 22.3896 19.7074 22.6582 20.0731C22.9278 20.4377 23.3075 20.6205 23.7984 20.6205C24.1689 20.6205 24.4735 20.5185 24.7122 20.3133C24.951 20.1081 25.094 19.8041 25.1413 19.4012H27.2005C27.1336 20.3463 26.7971 21.0713 26.191 21.5752C25.5859 22.0769 24.8018 22.3289 23.8396 22.3289Z" fill="black"/>
<path d="M27.8066 22.2034V14.7471H32.7935V16.3948H29.8658V17.6779H32.1977V19.2002H29.8658V20.5556H32.9551V22.2034H27.8066Z" fill="black"/>
<path d="M33.6816 22.2034V14.7471H36.0135L38.3248 18.9493V14.7471H40.1318V22.2034H38.1334L35.499 17.5217V22.2034H33.6816Z" fill="black"/>
<path d="M42.606 22.2034V16.3948H40.7383V14.7471H46.5525V16.3948H44.6848V22.2034H42.606Z" fill="black"/>
<path d="M50.3087 22.3287C49.2786 22.3287 48.4883 22.0629 47.9367 21.5314C47.3852 20.9999 47.1094 20.2153 47.1094 19.1799V14.748H49.1788V19.0864C49.1788 19.636 49.2612 20.0336 49.4258 20.2802C49.5905 20.5268 49.8848 20.6501 50.3087 20.6501C50.7255 20.6501 51.0188 20.5268 51.1865 20.2802C51.3543 20.0336 51.4387 19.6253 51.4387 19.0545V14.748H53.5287V19.1491C53.5287 20.2058 53.2477 20.9999 52.6859 21.5325C52.124 22.0629 51.3316 22.3287 50.3087 22.3287Z" fill="black"/>
<path d="M54.5684 22.2034V14.7471H57.3952C58.344 14.7471 59.0705 14.9469 59.5758 15.3466C60.0811 15.7463 60.3332 16.3353 60.3332 17.1145V17.156C60.3332 18.1148 59.8989 18.7686 59.0314 19.1162L60.7572 22.2034H58.5766L57.1132 19.534H56.6286V22.2034H54.5684ZM56.6275 18.1467H57.2933C57.9859 18.1467 58.3327 17.8448 58.3327 17.2399V17.1985C58.3327 16.6351 57.99 16.3534 57.3026 16.3534H56.6265V18.1467H56.6275Z" fill="black"/>
<path d="M61.3008 22.2034V14.7471H66.2876V16.3948H63.3599V17.6779H65.6918V19.2002H63.3599V20.5556H66.4492V22.2034H61.3008Z" fill="black"/>
<path d="M8.10881 32.1491C7.10547 32.1491 6.34602 31.9376 5.82737 31.5134C5.30872 31.0893 5.03293 30.4706 5 29.6573H6.96861C6.99536 29.9635 7.09312 30.2016 7.26086 30.3717C7.4286 30.5418 7.71159 30.6268 8.10881 30.6268C8.39798 30.6268 8.62541 30.5588 8.79006 30.4238C8.95471 30.2877 9.03703 30.1091 9.03703 29.8869C9.03703 29.6648 8.95985 29.5064 8.80446 29.4128C8.6501 29.3193 8.34653 29.2374 7.8958 29.1683C6.87908 29.0429 6.17108 28.8047 5.77077 28.4539C5.37046 28.1031 5.1698 27.5482 5.1698 26.7902C5.1698 26.1088 5.42398 25.5507 5.93234 25.117C6.4407 24.6822 7.11885 24.4653 7.9668 24.4653C9.7368 24.4653 10.6856 25.2403 10.8132 26.7913H8.89605C8.82196 26.2555 8.51221 25.9887 7.96783 25.9887C7.69822 25.9887 7.49137 26.0461 7.3473 26.1609C7.20221 26.2757 7.13017 26.4309 7.13017 26.6255C7.13017 26.8413 7.20735 27.0007 7.36274 27.1049C7.5171 27.2091 7.81347 27.2931 8.25083 27.3547C9.22021 27.4663 9.92306 27.6864 10.3604 28.017C10.7978 28.3476 11.017 28.8983 11.017 29.6701C11.017 30.3791 10.7576 30.9702 10.24 31.4433C9.72136 31.9131 9.01131 32.1491 8.10881 32.1491Z" fill="black"/>
<path d="M13.1764 32.0247V26.2161H11.3086V24.5684H17.1228V26.2161H15.2561V32.0247H13.1764Z" fill="black"/>
<path d="M21.1818 32.149C20.1517 32.149 19.3614 31.8833 18.8098 31.3517C18.2582 30.8202 17.9824 30.0357 17.9824 29.0002V24.5684H20.0519V28.9067C20.0519 29.4563 20.1342 29.8539 20.2989 30.1005C20.4635 30.3471 20.7578 30.4705 21.1818 30.4705C21.5986 30.4705 21.8918 30.3471 22.0596 30.1005C22.2273 29.8539 22.3117 29.4457 22.3117 28.8748V24.5684H24.4017V28.9694C24.4017 30.0261 24.1208 30.8202 23.5589 31.3528C22.9971 31.8833 22.2047 32.149 21.1818 32.149Z" fill="black"/>
<path d="M25.7461 32.0246V24.5684H28.3702C29.6421 24.5684 30.6043 24.883 31.2578 25.5124C31.9102 26.1417 32.2374 27.04 32.2374 28.2083V28.2922C32.2374 29.4669 31.9061 30.3833 31.2434 31.0402C30.5806 31.6972 29.6195 32.0257 28.361 32.0257H25.7461V32.0246ZM27.8248 30.3769H28.2992C28.9115 30.3769 29.3612 30.2089 29.6473 29.8709C29.9334 29.5339 30.0764 29.0173 30.0764 28.322V28.2391C30.0764 27.53 29.9334 27.0155 29.6473 26.6955C29.3612 26.3756 28.9053 26.2161 28.2797 26.2161H27.8258V30.3769H27.8248Z" fill="black"/>
<path d="M33.2852 32.0247V24.5684H35.3752V32.0247H33.2852Z" fill="black"/>
<path d="M40.2 32.1494C39.0495 32.1494 38.1305 31.7986 37.4442 31.0959C36.7578 30.3943 36.4141 29.4758 36.4141 28.3426V28.2586C36.4141 27.1392 36.7753 26.2271 37.4987 25.5212C38.2221 24.8153 39.1329 24.4624 40.2298 24.4624C41.3474 24.4624 42.2643 24.8015 42.9805 25.4787C43.6968 26.1569 44.0559 27.0658 44.0559 28.2054V28.2894C44.0559 29.4439 43.704 30.3751 43.0011 31.0842C42.2983 31.7954 41.3639 32.1494 40.2 32.1494ZM40.2401 30.4708C40.7516 30.4708 41.155 30.2795 41.4514 29.8968C41.7477 29.5141 41.8959 28.99 41.8959 28.3224V28.2394C41.8959 27.5793 41.7457 27.0626 41.4462 26.6906C41.1467 26.3185 40.7413 26.1325 40.2298 26.1325C39.7184 26.1325 39.315 26.3164 39.0186 26.6853C38.7223 27.0541 38.5741 27.575 38.5741 28.249V28.333C38.5741 29.0006 38.7253 29.5236 39.0289 29.9021C39.3315 30.2816 39.7359 30.4708 40.2401 30.4708Z" fill="black"/>
<path d="M47.6088 32.1491C46.6055 32.1491 45.846 31.9376 45.3274 31.5134C44.8087 31.0893 44.5329 30.4706 44.5 29.6573H46.4686C46.4954 29.9635 46.5931 30.2016 46.7609 30.3717C46.9286 30.5418 47.2116 30.6268 47.6088 30.6268C47.898 30.6268 48.1254 30.5588 48.2901 30.4238C48.4547 30.2888 48.537 30.1091 48.537 29.8869C48.537 29.6648 48.4599 29.5064 48.3045 29.4128C48.1501 29.3193 47.8465 29.2374 47.3958 29.1683C46.3791 29.0429 45.6711 28.8047 45.2708 28.4539C44.8705 28.1031 44.6698 27.5482 44.6698 26.7902C44.6698 26.1088 44.924 25.5507 45.4323 25.117C45.9407 24.6822 46.6188 24.4653 47.4668 24.4653C49.2368 24.4653 50.1856 25.2403 50.3132 26.7913H48.395C48.3209 26.2555 48.0112 25.9887 47.4668 25.9887C47.1972 25.9887 46.9903 26.0461 46.8463 26.1609C46.7012 26.2757 46.6291 26.4309 46.6291 26.6255C46.6291 26.8413 46.7063 27.0007 46.8617 27.1049C47.0161 27.2091 47.3124 27.2931 47.7498 27.3547C48.7192 27.4663 49.422 27.6864 49.8594 28.017C50.2967 28.3476 50.5159 28.8983 50.5159 29.6701C50.5159 30.3791 50.2566 30.9702 49.739 31.4433C49.2203 31.9131 48.5103 32.1491 47.6088 32.1491Z" fill="black"/>
<defs>
<linearGradient id="paint0_linear" x1="44.1958" y1="22.4998" x2="81.9996" y2="22.4998" gradientUnits="userSpaceOnUse">
<stop offset="2.02456e-07" stop-color="#028CBF"/>
<stop offset="1" stop-color="#4353A4"/>
</linearGradient>
</defs>
</svg>
