<svg width="160" height="50" viewBox="0 0 160 50" fill="none" xmlns="http://www.w3.org/2000/svg">
<path d="M94.8105 37.9998C94.8162 37.7937 94.8274 37.5876 94.8274 37.3816C94.8286 31.2442 94.8286 25.1068 94.8286 18.9694C94.8286 18.7453 94.8286 18.5223 94.8286 18.2543C96.1018 18.2543 97.3447 18.2543 98.6247 18.2543C98.6247 18.8421 98.6247 19.4176 98.6247 20.1394C98.914 19.8489 99.1166 19.6473 99.317 19.4435C100.159 18.5899 101.139 18.0144 102.358 17.8996C104.457 17.7014 106.332 18.5009 107.399 20.3737C108.392 22.1158 108.582 24.0268 108.494 25.9807C108.437 27.2633 108.193 28.5111 107.631 29.6789C106.386 32.2644 103.99 33.2352 101.383 32.7093C100.477 32.5268 99.7955 31.9773 99.227 31.2734C99.0559 31.0606 98.8937 30.841 98.6382 30.6518C98.6382 33.1012 98.6382 35.5493 98.6382 37.9987C97.3627 37.9998 96.0861 37.9998 94.8105 37.9998ZM98.7147 25.4852C98.7024 26.2611 98.7947 27.1721 99.2168 28.0156C99.7595 29.1 100.658 29.5921 101.861 29.5696C103.038 29.5482 103.89 28.9953 104.322 27.9277C105.012 26.225 105.008 24.4818 104.308 22.7802C103.86 21.6901 102.987 21.1214 101.796 21.1192C100.595 21.118 99.7212 21.6687 99.1999 22.7599C98.8104 23.5752 98.7114 24.4446 98.7147 25.4852Z" fill="#C73636"/>
<path d="M7.06947 27.8988C7.08411 27.5823 7.12126 27.3109 7.15166 27.195C7.47926 25.9168 8.25942 24.9821 9.50228 24.6116C10.8577 24.2073 12.2649 23.9686 13.6586 23.7051C14.3701 23.57 15.1019 23.5396 15.8944 23.454C15.837 22.9596 15.8156 22.4945 15.7222 22.0441C15.6096 21.5069 15.2539 21.1488 14.7191 21.0114C13.9041 20.8019 13.0822 20.8064 12.2773 21.0564C11.4623 21.3098 11.1392 21.972 10.9872 22.7828C9.822 22.7828 8.67145 22.7828 7.52091 22.7828C7.34529 21.0576 8.38888 19.2637 10.0269 18.5204C11.4116 17.892 12.8886 17.7862 14.3758 17.8977C15.1728 17.9573 15.9822 18.0756 16.7489 18.2963C18.6627 18.8481 19.6444 20.124 19.6973 22.1218C19.7435 23.9022 19.7119 25.686 19.7131 27.4675C19.7142 29.1364 19.7131 30.8042 19.7131 32.5305C18.6762 32.6308 17.6799 32.6893 16.723 32.2445C16.0892 31.9495 15.9586 31.3684 15.8978 30.6646C15.6197 30.9371 15.389 31.1589 15.1627 31.3864C13.7926 32.7637 12.0961 33.0621 10.2791 32.7569C8.68159 32.4878 7.63912 31.508 7.1798 29.9348C7.14152 29.8019 7.10212 29.606 7.07735 29.4236C7.01769 29.0936 7.03795 28.2051 7.06947 27.8988ZM15.8922 25.8245C15.067 25.9585 14.2868 26.0429 13.5269 26.2197C12.8593 26.3751 12.1749 26.5531 11.5715 26.8639C10.5526 27.3875 10.5414 28.8954 11.496 29.5305C12.5948 30.2603 14.6122 29.838 15.3 28.713C15.8348 27.8369 15.9248 26.8616 15.8922 25.8245Z" fill="#222326"/>
<path d="M151.999 32.8196C151.062 32.8174 150.124 32.7915 149.188 32.8162C147.007 32.8748 145.934 31.1597 145.932 29.5696C145.928 26.8511 145.931 24.1338 145.931 21.4153C145.931 20.216 145.931 19.0156 145.931 17.8162C145.932 15.8455 147.102 14.6349 149.077 14.5595C149.243 14.5527 149.41 14.5584 149.646 14.5584C149.646 15.7712 149.646 16.9581 149.646 18.18C150.476 18.18 151.237 18.18 151.998 18.18C151.998 19.0809 151.998 19.9818 151.998 20.8827C151.237 20.8827 150.476 20.8827 149.692 20.8827C149.675 21.0843 149.659 21.1924 149.659 21.3005C149.658 23.7543 149.658 26.2093 149.658 28.6631C149.658 28.7374 149.658 28.8129 149.666 28.8872C149.735 29.5786 149.908 29.7813 150.595 29.8511C151.059 29.8984 151.529 29.8804 151.998 29.8906C151.999 30.868 151.999 31.8433 151.999 32.8196Z" fill="#C73636"/>
<path d="M41.1108 13C41.0973 13.955 41.0827 14.9088 41.0692 15.8637C41.0669 16.0653 41.0692 16.2669 41.0692 16.4876C39.7768 16.4876 38.5463 16.4876 37.2832 16.4876C37.2832 15.3108 37.2832 14.1554 37.2832 13C38.5587 13 39.8353 13 41.1108 13Z" fill="#222326"/>
<path d="M126.106 13C126.106 14.1385 126.106 15.277 126.106 16.4617C124.888 16.4617 123.65 16.4617 122.391 16.4617C122.391 15.3018 122.391 14.1509 122.391 13C123.629 13 124.867 13 126.106 13Z" fill="#C73636"/>
<path d="M64.8291 32.4776C63.5604 32.4776 62.3288 32.4776 61.0353 32.4776C61.0353 32.2828 61.0353 32.1026 61.0353 31.9213C61.0353 29.3323 61.0465 26.7434 61.0263 24.1544C61.0218 23.597 60.9587 23.0294 60.8349 22.4866C60.639 21.6251 60.1425 21.2152 59.332 21.124C58.3447 21.0137 57.5285 21.3447 57.2054 22.1296C56.9678 22.7062 56.7877 23.3504 56.7731 23.9686C56.7112 26.5936 56.7213 29.2197 56.7044 31.8459C56.7033 32.0486 56.7044 32.2501 56.7044 32.4731C55.4177 32.4731 54.1872 32.4731 52.8959 32.4731C52.8959 32.2535 52.8959 32.0542 52.8959 31.8549C52.8959 29.3414 52.9004 26.8267 52.8925 24.3132C52.8903 23.8076 52.8678 23.2986 52.8047 22.7986C52.6764 21.7839 52.2013 21.2637 51.3401 21.1341C50.274 20.9731 49.4015 21.3887 48.994 22.2682C48.6315 23.0519 48.5651 23.8977 48.5583 24.7411C48.5414 27.124 48.5493 29.5058 48.5482 31.8887C48.5482 32.0722 48.5482 32.2569 48.5482 32.4664C47.2772 32.4664 46.0467 32.4664 44.7734 32.4664C44.7734 27.7411 44.7734 23.0103 44.7734 18.2456C46.0095 18.2456 47.2378 18.2456 48.5347 18.2456C48.5347 18.8425 48.5347 19.4438 48.5347 20.1646C48.9129 19.7535 49.191 19.4337 49.4871 19.1319C50.6601 17.936 52.0865 17.6375 53.675 18.0069C54.8818 18.2873 55.6676 19.0688 56.1472 20.2794C56.3126 20.0846 56.4534 19.9269 56.5851 19.7614C57.9 18.1105 59.592 17.5396 61.6342 18.0238C63.288 18.4157 64.21 19.5474 64.6085 21.1341C64.7537 21.7107 64.837 22.3188 64.8415 22.9123C64.8652 26.026 64.855 29.1409 64.855 32.2546C64.855 32.311 64.8427 32.365 64.8291 32.4776Z" fill="#222326"/>
<path d="M77.4085 32.4494C77.4085 31.8019 77.4085 31.1881 77.4085 30.5755C77.377 30.5598 77.3444 30.5429 77.3128 30.5271C77.1969 30.678 77.0753 30.8244 76.9672 30.9798C75.7458 32.7366 73.931 33.1791 71.7695 32.6645C69.8321 32.2039 68.6241 30.669 68.4541 28.6059C68.3911 27.8402 68.3742 27.0699 68.3708 26.3019C68.3607 23.8255 68.3674 21.348 68.3674 18.8717C68.3674 18.6701 68.3674 18.4685 68.3674 18.2422C69.6542 18.2422 70.8835 18.2422 72.1827 18.2422C72.1827 18.4494 72.1827 18.6476 72.1827 18.8469C72.1827 21.3987 72.1692 23.9505 72.1928 26.5023C72.1985 27.0958 72.2829 27.6983 72.4124 28.2782C72.5587 28.9336 73.009 29.3638 73.68 29.4866C75.6276 29.8413 76.8411 29.1498 77.225 27.3334C77.3669 26.6611 77.3995 25.9562 77.4063 25.2647C77.4288 23.1442 77.4142 21.0237 77.4142 18.9032C77.4142 18.6994 77.4142 18.4967 77.4142 18.2534C78.6829 18.2534 79.9089 18.2534 81.1788 18.2534C81.1788 22.9685 81.1788 27.687 81.1788 32.4505C79.9663 32.4494 78.7223 32.4494 77.4085 32.4494Z" fill="#222326"/>
<path d="M133.641 32.4683C132.34 32.4683 131.109 32.4683 129.852 32.4683C129.852 27.7228 129.852 23.0032 129.852 18.2465C131.09 18.2465 132.318 18.2465 133.622 18.2465C133.622 18.8917 133.622 19.5483 133.622 20.2983C134.048 19.8219 134.373 19.4154 134.742 19.0539C136.664 17.1744 140.459 17.5911 141.951 19.8287C142.428 20.5427 142.616 21.3568 142.623 22.1778C142.656 25.5899 142.637 29.0021 142.637 32.4548C141.4 32.4548 140.157 32.4548 138.856 32.4548C138.856 32.2363 138.856 32.0348 138.856 31.8343C138.856 29.2082 138.863 26.5809 138.849 23.9548C138.847 23.4717 138.804 22.9762 138.686 22.51C138.5 21.7814 138.008 21.3377 137.247 21.1778C135.479 20.8062 134.071 21.8095 133.769 23.7104C133.681 24.2634 133.649 24.8287 133.644 25.3895C133.631 27.5472 133.639 29.7048 133.639 31.8625C133.641 32.046 133.641 32.2307 133.641 32.4683Z" fill="#C73636"/>
<path d="M21.9792 32.4629C21.9792 31.8334 21.9466 31.2523 21.9871 30.6757C22.049 29.7793 22.4802 29.0462 23.078 28.3886C25.0335 26.2377 26.9777 24.0766 28.9253 21.9178C29.0457 21.7838 29.1594 21.6419 29.326 21.4437C27.025 21.4437 24.8027 21.4437 22.5354 21.4437C22.5354 20.3694 22.5354 19.3322 22.5354 18.2534C26.3202 18.2534 30.1118 18.2534 33.9721 18.2534C34.043 19.6825 34.0599 21.0597 33.0152 22.2196C31.0451 24.4077 29.0941 26.6127 27.1353 28.8109C27.0272 28.9325 26.9203 29.0552 26.7401 29.2613C29.2574 29.2613 31.6632 29.2613 34.105 29.2613C34.105 30.3525 34.105 31.3908 34.105 32.4618C30.0859 32.4629 26.0647 32.4629 21.9792 32.4629Z" fill="#222326"/>
<path d="M88.5354 14.6036C88.5354 15.8119 88.5354 16.9864 88.5354 18.2083C89.3145 18.2083 90.0564 18.2083 90.832 18.2083C90.832 19.1249 90.832 19.9932 90.832 20.9099C90.0789 20.9099 89.337 20.9099 88.5602 20.9099C88.5433 21.0957 88.5208 21.2376 88.5208 21.3795C88.5185 23.7792 88.5174 26.1801 88.5219 28.5799C88.5219 28.7849 88.5478 28.9898 88.5782 29.1925C88.6322 29.5506 88.8428 29.7691 89.2075 29.8018C89.7434 29.8502 90.2804 29.8828 90.841 29.9245C90.841 30.8592 90.841 31.7916 90.841 32.8108C90.6384 32.8108 90.4234 32.8108 90.2083 32.8108C89.4586 32.8108 88.7088 32.8164 87.959 32.8096C86.124 32.7916 84.8181 31.5011 84.799 29.652C84.7798 27.7961 84.7945 25.9391 84.7934 24.0822C84.7934 21.9819 84.7922 19.8817 84.7934 17.7815C84.7945 15.6554 86.2996 14.3479 88.5354 14.6036Z" fill="#222326"/>
<path d="M115.239 20.1967C116.274 18.6911 117.528 17.6123 119.546 17.9332C119.546 19.2046 119.546 20.4524 119.546 21.7452C119.292 21.7452 119.037 21.7384 118.783 21.7463C118.334 21.762 117.876 21.735 117.439 21.8184C116.141 22.065 115.293 23.0526 115.194 24.4828C115.123 25.5098 115.145 26.5447 115.141 27.5751C115.134 29.1855 115.138 30.797 115.138 32.4501C113.861 32.4501 112.621 32.4501 111.354 32.4501C111.354 27.7147 111.354 22.9974 111.354 18.244C112.603 18.244 113.831 18.244 115.114 18.244C115.114 18.887 115.114 19.5177 115.114 20.1483C115.156 20.1652 115.197 20.181 115.239 20.1967Z" fill="#C73636"/>
<path d="M41.0326 32.474C39.7773 32.474 38.548 32.474 37.2871 32.474C37.2871 27.7262 37.2871 22.9965 37.2871 18.2397C38.5412 18.2397 39.7683 18.2397 41.0326 18.2397C41.0326 22.9931 41.0326 27.7229 41.0326 32.474Z" fill="#222326"/>
<path d="M122.391 18.2363C123.642 18.2363 124.854 18.2363 126.106 18.2363C126.106 22.9807 126.106 27.6992 126.106 32.4559C124.885 32.4559 123.658 32.4559 122.391 32.4559C122.391 27.7352 122.391 23.0179 122.391 18.2363Z" fill="#C73636"/>
</svg>
