<svg width="45" height="36" viewBox="0 0 45 36" fill="none" xmlns="http://www.w3.org/2000/svg">
<path d="M0 35.5601C0 34.4906 0 33.4698 0 32.4976C0 31.4281 0.0483699 30.4073 0.14511 29.4351C0.532068 24.3795 1.64457 19.3726 3.48262 14.4142C5.32067 9.4559 7.54568 4.83784 10.1577 0.560059L20.6055 3.91423C18.574 8.19201 17.0262 12.5184 15.962 16.8934C14.9946 21.2684 14.5109 25.3517 14.5109 29.1434C14.5109 30.1156 14.5109 31.1851 14.5109 32.3517C14.6077 33.4212 14.7044 34.4906 14.8011 35.5601H0ZM24.3945 35.5601C24.3945 34.4906 24.3945 33.4698 24.3945 32.4976C24.3945 31.4281 24.4429 30.4073 24.5396 29.4351C24.9266 24.3795 26.0391 19.3726 27.8771 14.4142C29.7152 9.4559 31.9402 4.83784 34.5521 0.560059L45 3.91423C42.9685 8.19201 41.4206 12.5184 40.3565 16.8934C39.3891 21.2684 38.9054 25.3517 38.9054 29.1434C38.9054 30.1156 38.9054 31.1851 38.9054 32.3517C39.0022 33.4212 39.0989 34.4906 39.1956 35.5601H24.3945Z" fill="#03A5C4"/>
</svg>
