<svg width="144" height="50" viewBox="0 0 144 50" fill="none" xmlns="http://www.w3.org/2000/svg">
<g clip-path="url(#clip0)">
<path d="M0.0277166 48.7826C0.351663 48.7786 0.563474 48.527 0.816816 48.389C1.70559 47.9102 2.56114 47.3786 3.46238 46.9119C4.35946 46.4453 5.1984 45.8731 6.07471 45.3659C6.80982 44.9398 7.56569 44.5502 8.30911 44.1363C8.75765 43.8847 9.19373 43.6129 9.63812 43.3491C10.0493 43.1056 10.4563 42.8621 10.8716 42.6308C12.0469 41.9694 13.2264 41.3201 14.3976 40.6546C15.2075 40.1961 16.0049 39.7091 16.8148 39.2465C17.6745 38.7555 18.5466 38.2808 19.4105 37.7898C20.2204 37.3312 21.0261 36.8605 21.8359 36.3979C22.5212 36.0043 23.2189 35.6269 23.9001 35.2292C24.7888 34.7139 25.7191 34.2675 26.583 33.7034C26.9817 33.4437 27.4136 33.2408 27.8331 33.0136C28.3273 32.7458 28.8049 32.4658 29.2244 32.0925C29.6397 31.7191 29.7394 31.2241 29.8141 30.7168C29.8474 30.4774 29.7934 30.2299 29.8266 29.9905C29.8931 29.4913 29.6812 29.0693 29.5027 28.6311C29.3947 28.3632 29.1829 28.1928 28.9378 28.0345C27.2517 26.943 25.5945 25.8068 23.8876 24.7476C22.0436 23.6074 20.2287 22.4265 18.4054 21.2538C17.6039 20.7384 16.7691 20.2718 15.9758 19.7483C13.9491 18.4132 11.8933 17.1269 9.8707 15.7797C9.29341 15.3942 8.67874 15.0655 8.09315 14.6921C7.7069 14.4446 7.33312 14.1768 6.96764 13.9009C6.71014 13.7061 6.61047 13.4707 6.83889 13.1785C6.86796 13.138 6.8472 13.0609 6.8472 13C10.8218 13 14.7922 13 18.7668 13C19.2776 13.3612 19.7843 13.7304 20.2993 14.0875C21.3666 14.8179 22.4381 15.5362 23.5097 16.2585C24.9757 17.2486 26.4418 18.2388 27.9079 19.2289C28.9794 19.9512 30.0716 20.6492 31.1141 21.408C32.3393 22.2967 33.5977 23.1326 34.8602 23.9645C35.9234 24.6665 36.9742 25.3847 38.0125 26.1152C38.4776 26.4438 38.7767 26.874 38.8805 27.4664C39.0881 28.627 38.9594 29.7876 38.9719 30.9481C38.976 31.4716 38.76 32.0032 38.4029 32.3927C38.1205 32.7052 37.6927 32.8878 37.3272 33.1313C36.4135 33.7318 35.504 34.3365 34.5903 34.937C33.9756 35.3388 33.3568 35.7365 32.738 36.1301C31.87 36.686 31.0061 37.2541 30.1298 37.8019C28.9005 38.5689 27.6919 39.3723 26.475 40.1555C25.6568 40.683 24.8345 41.2065 24.0163 41.73C23.1816 42.2656 22.3509 42.8013 21.5161 43.341C19.9296 44.3636 18.3473 45.3862 16.7608 46.4047C15.0746 47.4882 13.3884 48.5676 11.7022 49.651C11.5278 49.7606 11.3575 49.8783 11.1831 49.9919C7.54077 49.9919 3.89846 49.9878 0.25614 50C0.0401761 50 -0.013815 49.9635 0.00279765 49.7525C0.0443292 49.4319 0.0277166 49.1073 0.0277166 48.7826Z" fill="#F89842"/>
<path d="M66.2727 13C66.2776 13.8155 66.2776 14.6359 66.2825 15.4514C66.2825 15.6444 66.2482 15.7747 66.0081 15.7554C65.8365 15.741 65.665 15.7506 65.4935 15.7506C60.3427 15.7506 55.1919 15.7506 50.0412 15.7506C49.8696 15.7506 49.6981 15.741 49.5266 15.7554C49.2178 15.7796 48.9875 15.9967 48.9826 16.3007C48.9728 17.0197 48.9728 17.7436 48.9826 18.4626C48.9875 18.81 49.208 19.0272 49.556 19.0513C49.703 19.061 49.85 19.0513 49.9971 19.0513C54.3686 19.0513 58.7352 19.0562 63.1068 19.0562C63.9791 19.0562 64.724 19.3988 65.4004 19.8862C65.8022 20.1757 65.9198 20.6679 66.111 21.0877C66.2433 21.3821 66.2874 21.7151 66.2776 22.0529C66.258 23.0373 66.2629 24.0217 66.2727 25.0061C66.2874 26.5889 65.1553 28.0752 63.6557 28.4854C63.2244 28.6012 62.7735 28.7122 62.3275 28.7122C56.9072 28.7267 51.4869 28.7219 46.0715 28.7219C45.9735 28.7219 45.8657 28.7412 45.7823 28.7122C45.7137 28.6881 45.6206 28.5964 45.6206 28.5385C45.6108 27.6506 45.6108 26.7627 45.6206 25.8699C45.6206 25.812 45.7235 25.7107 45.7872 25.701C45.9784 25.6769 46.1744 25.6914 46.3704 25.6914C51.5457 25.6914 56.721 25.6866 61.8963 25.6962C62.7343 25.6962 62.7833 25.7107 62.7637 24.8131C62.7539 24.3547 62.7392 23.9011 62.7686 23.4426C62.8029 22.8732 62.6118 22.7574 62.0874 22.8105C61.9894 22.8201 61.8914 22.8105 61.7933 22.8105C57.7894 22.8105 53.7854 22.8105 49.7814 22.8105C48.9385 22.8105 48.1445 22.6223 47.38 22.2459C46.4783 21.8019 45.998 21.0781 45.7382 20.1467C45.6353 19.7703 45.6059 19.4084 45.6059 19.032C45.601 18.3854 45.6304 17.7339 45.601 17.0873C45.5275 15.519 46.2185 14.3801 47.5466 13.5791C47.7476 13.4584 47.8995 13.2654 48.174 13.2606C48.2475 13.2606 48.321 13.0965 48.3945 13.0097C54.3539 13 60.3133 13 66.2727 13Z" fill="#486B81"/>
<path d="M141.001 25.6913C140.902 25.783 140.746 25.8602 140.716 25.9711C140.349 27.2596 139.427 28.022 138.222 28.4805C137.83 28.6301 137.389 28.7073 136.972 28.7073C132.698 28.7218 128.43 28.7314 124.156 28.7073C123.127 28.7025 122.221 28.3164 121.461 27.5974C120.892 27.0569 120.486 26.4441 120.29 25.6961C120.241 25.5175 120.201 25.3293 120.201 25.146C120.196 22.2844 120.182 19.4276 120.211 16.566C120.221 15.8084 120.456 15.0894 121.044 14.5344C121.24 14.3511 121.427 14.1629 121.613 13.9698C122.02 13.5548 122.5 13.2701 123.068 13.1302C123.142 13.1109 123.206 13.0385 123.274 12.9902C128.209 12.9902 133.14 12.9902 138.075 12.9902C138.251 13.1302 138.413 13.3039 138.609 13.4004C139.643 13.8975 140.373 14.6406 140.721 15.7408C140.755 15.8518 140.907 15.929 141.001 16.0207C141.001 19.2491 141.001 22.4726 141.001 25.6913ZM130.523 25.5561C130.768 25.5561 131.013 25.5561 131.253 25.5561C132.89 25.5561 134.522 25.5417 136.158 25.561C136.791 25.5706 137.197 25.3052 137.467 24.7599C137.594 24.4945 137.624 24.2243 137.624 23.9396C137.619 22.019 137.619 20.0984 137.619 18.1778C137.619 17.9124 137.629 17.647 137.619 17.3864C137.59 16.6529 137.202 16.04 136.639 15.9001C136.271 15.8084 135.884 15.765 135.507 15.7601C132.213 15.7505 128.92 15.7553 125.627 15.7553C125.318 15.7553 125.014 15.818 124.71 15.8567C124.347 15.9049 124.151 16.1076 123.931 16.3199C123.681 16.5612 123.558 16.8507 123.558 17.203C123.563 19.5579 123.563 21.908 123.558 24.2629C123.558 24.6827 123.784 24.9578 124.049 25.2473C124.284 25.5079 124.553 25.5658 124.891 25.561C126.764 25.5513 128.646 25.5561 130.523 25.5561Z" fill="#486B81"/>
<path d="M94.8456 12.9999C94.8946 13.2026 94.9779 13.4053 94.9779 13.608C94.9877 18.5108 94.9828 23.4136 94.9828 28.3165C94.9828 28.7122 94.973 28.7218 94.6005 28.7218C93.6988 28.7266 92.7921 28.7315 91.8904 28.717C91.7336 28.717 91.5473 28.6784 91.4297 28.5867C90.7583 28.051 90.1065 27.4816 89.44 26.9412C88.7196 26.3524 87.9795 25.7878 87.2591 25.1991C86.5387 24.6056 85.833 23.9927 85.1126 23.3992C84.3774 22.7959 83.6227 22.2072 82.8827 21.6088C82.5298 21.3241 82.1868 21.0249 81.8339 20.7354C80.6871 19.7992 79.4815 18.921 78.418 17.9028C77.7858 17.2996 77.1438 17.1258 76.3352 17.1789C75.801 17.2127 75.2619 17.1886 74.7228 17.1838C74.4141 17.1789 74.2376 17.039 74.1886 16.7494C74.1641 16.6095 74.1886 16.4599 74.1886 16.3151C74.1886 15.2101 74.1837 14.105 74.1837 12.9999C75.355 12.9999 76.5263 12.9999 77.7025 12.9999C77.9868 13.2509 78.2612 13.5115 78.5553 13.7431C79.5207 14.5152 80.5009 15.2728 81.4614 16.0546C82.5004 16.899 83.51 17.7773 84.5441 18.6266C85.6467 19.5338 86.7641 20.4314 87.8717 21.3338C88.2246 21.6185 88.5676 21.9177 88.9205 22.2024C89.6262 22.767 90.3319 23.3316 91.0474 23.8865C91.2043 24.0072 91.3121 24.3064 91.5473 24.1906C91.6404 24.1471 91.6159 23.8431 91.6159 23.6549C91.6208 20.1033 91.6208 16.5516 91.6208 12.9951C92.6941 12.9999 93.7723 12.9999 94.8456 12.9999Z" fill="#486B81"/>
<path d="M117.851 12.9999C118.11 13.8395 117.944 14.7033 117.988 15.5526C117.998 15.7167 117.89 15.7457 117.753 15.7457C117.581 15.7457 117.41 15.7457 117.238 15.7457C114.895 15.7457 112.553 15.7457 110.21 15.7457C110.063 15.7457 109.916 15.736 109.769 15.7457C109.299 15.7794 109.201 15.8808 109.201 16.344C109.201 20.2094 109.201 24.0795 109.201 27.9448C109.201 28.1137 109.191 28.2826 109.206 28.4467C109.225 28.688 109.088 28.7169 108.892 28.7169C107.966 28.7121 107.039 28.7073 106.108 28.7169C105.873 28.7218 105.819 28.6252 105.824 28.4226C105.834 28.1089 105.824 27.8001 105.824 27.4864C105.824 23.8093 105.829 20.137 105.829 16.4599C105.829 15.8132 105.765 15.7457 105.084 15.7457C102.766 15.7408 100.448 15.7457 98.1297 15.7408C97.9582 15.7408 97.7867 15.7505 97.6151 15.736C97.3015 15.7167 97.1888 15.6154 97.1839 15.2969C97.1741 14.5296 97.179 13.7575 97.179 12.9902C104.074 12.9999 110.965 12.9999 117.851 12.9999Z" fill="#486B81"/>
<path d="M38.253 13C38.5292 13.2502 38.8933 13.4296 38.9351 13.8675C38.9477 13.9843 38.9937 14.1053 38.9937 14.2221C39.0021 14.7392 39.0021 15.2564 38.9937 15.7778C38.9895 16.0864 38.9226 16.3742 38.6966 16.6119C38.4413 16.8789 38.1484 16.9998 37.7718 16.9998C35.2568 16.9873 32.7376 16.9956 30.2227 16.9956C29.641 16.9956 29.0593 16.9873 28.4777 16.9998C28.1805 17.004 27.9253 16.9373 27.6784 16.7537C27.0758 16.3033 26.4648 15.8654 25.8497 15.4399C25.0379 14.8727 24.2135 14.318 23.3933 13.7633C23.3263 13.7174 23.2468 13.6924 23.1882 13.6381C22.9539 13.4296 22.9497 13.3754 23.1129 13C28.1596 13 33.2063 13 38.253 13Z" fill="#486B81"/>
<path d="M71.8412 13C71.8853 13.2027 71.9735 13.4054 71.9735 13.608C71.9833 18.506 71.9784 23.4089 71.9784 28.3069C71.9784 28.6736 72.0519 28.7315 71.5276 28.7267C70.7483 28.717 69.9642 28.7267 69.185 28.7219C68.6753 28.717 68.6214 28.6543 68.6116 28.1331C68.6067 27.9401 68.6116 27.7471 68.6116 27.5589C68.6116 22.7091 68.6116 17.8546 68.6116 13.0048C69.6897 13 70.7679 13 71.8412 13Z" fill="#486B81"/>
<path d="M141.001 34.7825C140.634 35.0238 140.33 34.8935 140.056 34.6233C139.619 34.2035 139.193 33.774 138.752 33.359C138.561 33.1804 138.35 33.0308 138.139 32.8716C137.982 32.751 137.821 32.64 137.659 32.529C137.649 32.7172 137.635 32.9102 137.635 33.0984C137.63 33.5327 137.635 33.9622 137.63 34.3965C137.63 34.5123 137.62 34.633 137.581 34.7391C137.512 34.9177 137.316 34.9611 137.174 34.8356C137.027 34.7102 136.904 34.5847 136.904 34.3579C136.919 33.4941 136.899 32.6303 136.914 31.7617C136.919 31.3515 137.149 31.2357 137.532 31.4336C137.679 31.5108 137.821 31.6025 137.943 31.7086C138.639 32.336 139.33 32.9729 140.026 33.6003C140.085 33.6534 140.173 33.6823 140.247 33.7209C140.256 33.6534 140.281 33.581 140.281 33.5134C140.286 32.9585 140.276 32.4083 140.286 31.8534C140.296 31.3178 140.448 31.2357 141.016 31.4577C141.001 32.5676 141.001 33.6727 141.001 34.7825Z" fill="#486B81"/>
<path d="M52.6938 30.7388C54.7914 30.7388 56.884 30.7388 58.9816 30.7436C59.1678 30.7436 59.3736 30.7581 59.5305 30.8401C59.7608 30.9559 59.8294 31.1731 59.8245 31.4433C59.8098 32.5484 59.8196 33.6486 59.8147 34.7537C59.8147 35.2555 59.5109 35.5837 59.0061 35.6416C58.8836 35.6561 58.761 35.6416 58.6385 35.6416C54.664 35.6416 50.6943 35.6416 46.7197 35.6416C46.5972 35.6416 46.4747 35.6464 46.3522 35.6416C45.8033 35.6078 45.4749 35.2942 45.47 34.744C45.4553 33.6631 45.4553 32.5822 45.47 31.506C45.4749 30.9511 45.7004 30.7436 46.2541 30.7436C48.4056 30.7388 50.5522 30.7388 52.6938 30.7388ZM55.1442 33.0502C55.1442 33.2191 55.1687 33.388 55.1393 33.5521C55.0364 34.1601 55.3893 34.4641 55.8745 34.7103C56.1587 34.855 56.4381 34.9419 56.7615 34.9178C57.0507 34.8936 57.3496 34.884 57.6388 34.9178C58.0798 34.9757 58.4327 34.7633 58.7659 34.5607C59.0306 34.4014 59.2168 34.136 59.2217 33.7982C59.2266 33.3398 59.2462 32.8862 59.2168 32.4277C59.1874 31.9114 58.6973 31.4674 58.1778 31.4626C57.4966 31.4578 56.8105 31.4626 56.1293 31.4578C55.9284 31.4578 55.7666 31.4867 55.6049 31.6412C55.2962 31.9307 55.0266 32.2202 55.1344 32.6883C55.1687 32.809 55.1442 32.9344 55.1442 33.0502ZM50.7433 33.1516C50.7433 33.5569 50.7335 33.9671 50.7433 34.3725C50.7482 34.5993 50.9148 34.8116 51.0569 34.7682C51.2236 34.7151 51.3363 34.5944 51.3265 34.3966C51.3167 34.2036 51.3167 34.0154 51.3265 33.8223C51.3412 33.4218 51.4245 33.3687 51.8509 33.3301C52.3459 33.2867 52.7379 33.4363 53.0614 33.803C53.2182 33.9816 53.3946 34.1505 53.5809 34.3097C53.723 34.4304 53.8798 34.551 54.0514 34.6186C54.12 34.6475 54.2523 34.5365 54.3405 34.469C54.3552 34.4593 54.2964 34.3146 54.2425 34.2711C54.0808 34.136 53.8994 34.0298 53.7328 33.8996C53.5956 33.7934 53.4682 33.6679 53.5319 33.4749C53.5956 33.2722 53.7475 33.1709 53.9729 33.195C54.2719 33.2288 54.4385 33.0068 54.5316 32.809C54.8159 32.2009 54.3846 31.5012 53.6985 31.4723C52.8506 31.4385 51.9979 31.4626 51.1452 31.4626C50.8805 31.4626 50.7482 31.5929 50.7482 31.8583C50.7433 32.2878 50.7433 32.7221 50.7433 33.1516ZM46.3473 33.0068C46.3473 33.4845 46.3424 33.9623 46.3522 34.4448C46.3571 34.6089 46.5825 34.7247 46.7099 34.6137C46.8079 34.5269 46.8912 34.3966 46.9207 34.2711C46.955 34.1119 46.9207 33.9382 46.9305 33.7693C46.9501 33.4459 47.0383 33.3494 47.3617 33.3398C47.6754 33.3253 47.9939 33.335 48.3076 33.335C48.6261 33.335 48.9447 33.3687 49.2534 33.3205C49.4495 33.2915 49.6161 33.113 49.8121 33.0551C50.0621 32.9827 50.1699 32.8476 50.1601 32.6015C50.1552 32.4326 50.1552 32.2685 50.1601 32.0996C50.165 31.95 50.0915 31.8824 49.9445 31.8921C49.7974 31.9017 49.7631 31.8197 49.7092 31.6942C49.6259 31.506 49.4446 31.453 49.224 31.4578C48.3468 31.4674 47.4744 31.4674 46.5972 31.4578C46.4012 31.4578 46.3473 31.5398 46.3473 31.7135C46.3473 32.1479 46.3473 32.5773 46.3473 33.0068Z" fill="#F89842"/>
<path d="M77.6881 24.0119C77.6881 25.3824 77.6881 26.748 77.6881 28.1185C77.6881 28.6879 77.6489 28.7217 77.0706 28.7217C76.2913 28.7265 75.5121 28.7265 74.728 28.7217C74.4192 28.7217 74.2428 28.5818 74.1938 28.2874C74.1742 28.1716 74.1889 28.0461 74.1889 27.9303C74.1889 25.1459 74.1889 22.3616 74.1889 19.5772C74.1889 19.4807 74.1889 19.3841 74.1889 19.2876C74.1938 19.056 74.3212 18.9209 74.5417 18.9305C75.4582 18.9643 76.3796 18.834 77.2862 19.0464C77.4479 19.085 77.5411 19.1091 77.5558 19.2973C77.5754 19.553 77.6734 19.7992 77.6783 20.0549C77.6979 21.3723 77.6881 22.6897 77.6881 24.0119Z" fill="#486B81"/>
<path d="M117.991 33.0505C117.991 32.6161 117.982 32.1867 117.996 31.7524C118.006 31.4339 118.104 31.3325 118.437 31.3277C119.168 31.3181 119.903 31.3036 120.633 31.3325C120.932 31.347 121.25 31.4242 121.515 31.5593C121.971 31.7861 122.035 32.2253 121.951 32.6741C121.868 33.1132 121.496 33.2387 121.118 33.34C121.025 33.3641 120.927 33.3641 120.834 33.3786C120.898 33.4703 120.952 33.5668 121.03 33.644C121.304 33.9191 121.589 34.1796 121.853 34.4644C121.912 34.5271 121.927 34.6912 121.883 34.7635C121.814 34.8842 121.692 34.9855 121.525 34.8552C121.378 34.7394 121.201 34.6574 121.059 34.5319C120.805 34.3051 120.555 34.0783 120.329 33.8226C120.001 33.4558 119.609 33.2966 119.109 33.34C118.736 33.3738 118.736 33.3545 118.727 33.755C118.722 33.948 118.736 34.141 118.722 34.3292C118.712 34.4402 118.697 34.5802 118.624 34.6526C118.516 34.7587 118.349 34.8938 118.222 34.8794C118.06 34.8601 117.987 34.6815 117.991 34.4837C118.001 34.0108 117.991 33.5282 117.991 33.0505ZM119.805 31.9068C119.516 31.9068 119.222 31.902 118.932 31.9164C118.864 31.9213 118.746 32.0033 118.741 32.0564C118.722 32.2928 118.727 32.5341 118.741 32.7706C118.746 32.814 118.834 32.8864 118.883 32.8912C119.516 32.9009 120.143 32.9153 120.775 32.8912C121.005 32.8816 121.221 32.5631 121.226 32.3266C121.226 32.0998 121.069 31.9406 120.756 31.9116C120.437 31.8875 120.118 31.9068 119.805 31.9068Z" fill="#486B81"/>
<path d="M79.167 33.0603C79.167 32.9638 79.167 32.8673 79.167 32.7708C79.167 31.8153 79.3679 31.4823 80.2795 31.3569C80.9607 31.2652 81.6664 31.2411 82.3575 31.4486C82.8426 31.5933 83.1612 31.8925 83.2151 32.3703C83.2739 32.8625 83.2739 33.3692 83.22 33.8614C83.1514 34.4742 82.6809 34.8554 82.1173 34.8892C81.4067 34.9375 80.6716 35.034 79.9609 34.7831C79.3385 34.5611 79.1719 34.3584 79.1621 33.7021C79.167 33.4946 79.167 33.2775 79.167 33.0603ZM81.1518 34.3391C81.392 34.3391 81.588 34.3488 81.7841 34.3391C82.2545 34.315 82.5143 34.064 82.5339 33.6008C82.5486 33.2678 82.5486 32.93 82.5339 32.5971C82.5143 32.2255 82.2496 31.9311 81.8821 31.9118C81.4459 31.8877 81.0048 31.8877 80.5736 31.9118C80.2011 31.9311 79.9266 32.211 79.9119 32.5826C79.8923 32.9879 79.9119 33.3933 79.907 33.8035C79.9021 34.0303 80.0443 34.1123 80.2207 34.2233C80.5343 34.4163 80.8725 34.3005 81.1518 34.3391Z" fill="#486B81"/>
<path d="M136.467 33.142C136.467 33.335 136.467 33.5232 136.467 33.7162C136.463 34.4111 136.325 34.6379 135.625 34.8116C134.806 35.0143 133.963 35.0143 133.145 34.773C132.704 34.6427 132.503 34.3291 132.498 33.8755C132.493 33.3495 132.488 32.8235 132.498 32.2975C132.508 31.8535 132.679 31.5881 133.091 31.4771C133.958 31.2407 134.84 31.2359 135.708 31.4723C136.306 31.6316 136.458 31.8825 136.463 32.5002C136.467 32.7077 136.467 32.9248 136.467 33.142ZM134.551 31.9066C134.306 31.9066 134.061 31.897 133.821 31.9114C133.468 31.9307 133.243 32.1431 133.233 32.4953C133.218 32.9296 133.218 33.3591 133.233 33.7934C133.243 34.0974 133.478 34.3291 133.782 34.3387C134.247 34.3532 134.708 34.3532 135.174 34.3387C135.478 34.3291 135.644 34.1988 135.767 33.8706C135.928 33.4363 135.87 33.0165 135.85 32.6015C135.83 32.1768 135.448 31.9259 134.997 31.9163C134.845 31.9066 134.698 31.9066 134.551 31.9066Z" fill="#486B81"/>
<path d="M75.2064 34.9179C74.8388 34.9179 74.4762 34.9227 74.1086 34.913C73.991 34.913 73.8391 34.913 73.7704 34.8503C73.6822 34.7683 73.6283 34.6138 73.6185 34.4884C73.6136 34.4449 73.79 34.3484 73.8832 34.3436C74.6134 34.3291 75.3485 34.3436 76.0787 34.3291C76.2846 34.3243 76.51 34.2809 76.6913 34.1844C76.9756 34.0396 76.956 33.6391 76.6619 33.4895C76.5002 33.4074 76.3042 33.3592 76.1228 33.3495C75.5887 33.3302 75.0496 33.3544 74.5154 33.3351C74.0743 33.3206 73.6969 33.0407 73.6136 32.6595C73.5352 32.2975 73.5793 31.9067 73.9077 31.6943C74.1919 31.5061 74.5497 31.3614 74.8878 31.3372C75.6377 31.2842 76.3973 31.3179 77.152 31.3276C77.2598 31.3276 77.3971 31.3807 77.4657 31.4531C77.5343 31.5254 77.5588 31.6654 77.5441 31.7716C77.5392 31.8198 77.4069 31.8922 77.3285 31.897C77.0344 31.9115 76.7453 31.9018 76.4512 31.9018C76.0101 31.9018 75.5739 31.8922 75.1329 31.9018C74.6869 31.9115 74.3634 32.1045 74.334 32.3603C74.2997 32.6402 74.6428 32.8814 75.1329 32.8911C75.5936 32.9007 76.0591 32.8863 76.5247 32.8959C77.1471 32.9104 77.3873 33.1276 77.6127 33.7115C77.6862 33.9045 77.6372 34.001 77.5686 34.1554C77.3285 34.7104 76.8482 34.8696 76.3042 34.913C75.9415 34.942 75.574 34.9179 75.2064 34.9179Z" fill="#486B81"/>
<path d="M100.118 33.1038C100.118 32.6502 100.109 32.1917 100.123 31.7381C100.138 31.3617 100.339 31.2652 100.682 31.4631C100.824 31.5451 100.956 31.6513 101.079 31.7622C101.809 32.4282 102.53 33.0941 103.26 33.76C103.314 33.8083 103.377 33.8469 103.436 33.8903C103.456 33.8228 103.485 33.7552 103.485 33.6877C103.49 33.0893 103.485 32.4861 103.49 31.8877C103.49 31.7526 103.5 31.5933 103.564 31.4824C103.627 31.3665 103.76 31.2555 103.921 31.3955C104.088 31.5403 104.225 31.6706 104.22 31.9311C104.201 32.7225 104.22 33.5139 104.211 34.3053C104.211 34.4356 104.167 34.5852 104.088 34.6914C103.897 34.9665 103.774 34.9809 103.515 34.7396C102.696 33.9965 101.888 33.2389 101.074 32.4909C101.02 32.4427 100.961 32.404 100.903 32.3606C100.883 32.4282 100.849 32.4957 100.849 32.5633C100.844 33.1134 100.844 33.6684 100.844 34.2185C100.844 34.3391 100.854 34.4598 100.839 34.5804C100.814 34.7976 100.692 34.9375 100.461 34.923C100.241 34.9085 100.118 34.7734 100.118 34.5514C100.118 34.0641 100.123 33.5815 100.118 33.1038C100.123 33.1038 100.123 33.1038 100.118 33.1038Z" fill="#486B81"/>
<path d="M111.145 33.3497C110.827 33.3497 110.513 33.34 110.195 33.3545C110.062 33.3593 109.886 33.3738 109.812 33.4558C109.7 33.5765 109.803 34.0301 109.93 34.1169C110.151 34.2617 110.381 34.3486 110.665 34.3437C111.346 34.3244 112.033 34.3389 112.714 34.3389C112.861 34.3389 113.008 34.3293 113.022 34.5416C113.037 34.7491 112.9 34.9132 112.753 34.9083C111.768 34.8697 110.763 35.0676 109.793 34.778C109.254 34.6188 109.068 34.3437 109.058 33.7888C109.048 33.3352 109.063 32.8768 109.053 32.4183C109.048 31.9599 109.268 31.6607 109.69 31.5015C109.886 31.4242 110.092 31.3374 110.298 31.3326C111.077 31.3133 111.856 31.3181 112.64 31.3326C112.748 31.3326 112.885 31.4001 112.944 31.4773C113.008 31.5594 113.022 31.6993 112.998 31.8055C112.988 31.8537 112.841 31.902 112.753 31.902C112.072 31.9116 111.386 31.902 110.704 31.9116C110.543 31.9116 110.366 31.9309 110.214 31.984C109.822 32.124 109.783 32.2156 109.778 32.6113C109.778 32.8237 109.847 32.9009 110.072 32.9009C110.729 32.8912 111.391 32.8961 112.047 32.8961C112.17 32.8961 112.297 32.8816 112.41 32.9154C112.478 32.9347 112.542 33.0312 112.562 33.1036C112.596 33.2338 112.542 33.34 112.38 33.34C111.964 33.34 111.552 33.34 111.136 33.34C111.145 33.3448 111.145 33.3497 111.145 33.3497Z" fill="#486B81"/>
<path d="M71.6642 31.907C71.2721 31.907 70.88 31.8925 70.4929 31.9118C70.0469 31.9359 69.9097 32.0855 69.9342 32.4619C69.944 32.6791 70.1253 32.8625 70.3998 32.8914C70.6154 32.9155 70.8408 32.8962 71.0565 32.8962C71.4485 32.8962 71.8406 32.8866 72.2278 32.9011C72.7081 32.9204 73.0658 33.2147 73.1589 33.6346C73.252 34.0689 73.007 34.5418 72.561 34.7155C72.3209 34.8072 72.066 34.8989 71.8112 34.9085C71.1055 34.9327 70.3949 34.9182 69.6891 34.9182C69.6156 34.9182 69.5323 34.9423 69.4735 34.9133C69.3167 34.841 69.1795 34.7493 69.1991 34.537C69.2138 34.3246 69.3657 34.3391 69.5127 34.3391C70.2429 34.3391 70.9781 34.3246 71.7083 34.3439C71.9778 34.3488 72.1788 34.2812 72.3405 34.0737C72.4777 33.9 72.4777 33.678 72.2915 33.5767C72.0905 33.4657 71.8602 33.374 71.6348 33.3547C71.1741 33.3209 70.7085 33.3595 70.2429 33.3402C70.0616 33.3305 69.8705 33.2775 69.7038 33.2003C69.204 32.959 69.1305 32.7852 69.204 32.1579C69.2383 31.8539 69.5715 31.574 69.9195 31.4534C70.341 31.3134 70.7722 31.3279 71.2035 31.3231C71.6201 31.3231 72.0366 31.3086 72.4483 31.3279C72.6345 31.3376 72.8208 31.3906 72.9923 31.463C73.0707 31.4968 73.1442 31.6223 73.154 31.714C73.1736 31.8684 73.0462 31.9022 72.9139 31.8973C72.4973 31.8973 72.0857 31.8973 71.6691 31.8973C71.6642 31.9022 71.6642 31.907 71.6642 31.907Z" fill="#486B81"/>
<path d="M67.1694 34.3388C67.5615 34.3388 67.9487 34.3291 68.3407 34.3436C68.4338 34.3484 68.6103 34.4449 68.6054 34.4884C68.5956 34.6138 68.5417 34.7634 68.4535 34.8503C68.3848 34.9178 68.2329 34.9178 68.1153 34.9178C67.4341 34.9227 66.748 34.9371 66.0667 34.913C65.7923 34.9034 65.5179 34.802 65.2483 34.7152C64.8268 34.58 64.67 34.2519 64.6651 33.8417C64.6553 33.4074 64.6945 32.9731 64.6553 32.5436C64.6063 32.008 64.9298 31.7136 65.3316 31.4965C65.5473 31.3807 65.8315 31.3421 66.0864 31.3372C66.7676 31.3179 67.4537 31.3276 68.1349 31.3324C68.228 31.3324 68.3554 31.3179 68.4093 31.371C68.5074 31.4579 68.6005 31.5833 68.6201 31.7088C68.6544 31.9115 68.4731 31.9163 68.326 31.9163C67.5713 31.9163 66.8117 31.9308 66.057 31.9067C65.7972 31.897 65.6061 31.9839 65.5081 32.1769C65.4198 32.3554 65.3806 32.5919 65.4198 32.7849C65.464 33.0069 65.709 32.8959 65.8609 32.8959C66.5421 32.9056 67.2283 32.9007 67.9095 32.9007C68.0712 32.9007 68.1937 32.9345 68.1888 33.1372C68.1839 33.3447 68.0418 33.3543 67.8899 33.3543C67.1841 33.3543 66.4735 33.364 65.7678 33.3495C65.4296 33.3447 65.3806 33.3206 65.4002 33.7742C65.4149 34.1071 65.6502 34.3291 66.003 34.3388C66.3902 34.3484 66.7774 34.3388 67.1694 34.3388Z" fill="#486B81"/>
<path d="M115.954 34.9177C115.61 34.9177 115.267 34.9225 114.929 34.9177C113.974 34.8984 113.464 34.3966 113.459 33.4797C113.459 33.2143 113.459 32.9489 113.459 32.6883C113.464 31.9258 113.934 31.3854 114.718 31.3371C115.473 31.2937 116.233 31.3275 116.988 31.3275C117.037 31.3275 117.105 31.3033 117.13 31.3275C117.257 31.4481 117.576 31.395 117.532 31.6508C117.497 31.8535 117.296 31.9162 117.076 31.9114C116.395 31.8969 115.708 31.9017 115.022 31.9114C114.449 31.9162 114.204 32.1575 114.184 32.7124C114.175 33.0019 114.175 33.2915 114.184 33.5762C114.194 33.9912 114.375 34.3386 114.988 34.3386C115.282 34.3386 115.576 34.3483 115.865 34.3338C116.174 34.3193 116.483 34.2904 116.792 34.2663C116.801 33.9815 116.811 33.692 116.821 33.4073C116.826 33.3108 116.806 33.2094 116.845 33.1274C116.934 32.9247 117.115 32.8813 117.331 32.8958C117.536 32.9054 117.561 33.0212 117.556 33.1805C117.551 33.6148 117.566 34.0443 117.551 34.4786C117.541 34.8067 117.448 34.9032 117.125 34.9177C116.733 34.9274 116.346 34.9177 115.954 34.9177Z" fill="#486B81"/>
<path d="M83.6948 33.1033C83.6948 32.669 83.6997 32.2395 83.6899 31.8052C83.685 31.6266 83.7095 31.4771 83.881 31.3757C84.0967 31.2454 84.1898 31.4384 84.3025 31.5398C85.018 32.1816 85.7286 32.8379 86.4393 33.4845C86.4932 33.5328 86.5373 33.5955 86.5961 33.6341C86.6745 33.6824 86.7578 33.7161 86.8411 33.7547C86.8705 33.6727 86.9293 33.5907 86.9293 33.5086C86.9391 33.0502 86.9195 32.5966 86.9391 32.1382C86.9489 31.9355 86.9979 31.7183 87.0911 31.535C87.1401 31.4384 87.3361 31.3323 87.4292 31.3564C87.5272 31.3854 87.586 31.5639 87.6596 31.6797C87.6694 31.699 87.6596 31.728 87.6596 31.7521C87.6596 32.6642 87.6547 33.581 87.6645 34.4931C87.6645 34.6909 87.5909 34.826 87.4243 34.8984C87.2479 34.9756 87.096 34.8984 86.9783 34.7585C86.9636 34.7392 86.944 34.7247 86.9244 34.7054C86.2138 34.0539 85.5032 33.4025 84.7975 32.7558C84.7093 32.6738 84.6308 32.5773 84.5279 32.5097C84.3956 32.4229 84.2976 32.4711 84.2927 32.6352C84.2829 32.8041 84.2878 32.973 84.2878 33.1419C84.2878 33.6245 84.2927 34.1022 84.2829 34.5847C84.2829 34.715 84.3319 34.8888 84.1114 34.9177C83.9055 34.9467 83.7242 34.8212 83.6899 34.6185C83.6703 34.5027 83.685 34.3772 83.685 34.2566C83.6948 33.8706 83.6948 33.4893 83.6948 33.1033Z" fill="#486B81"/>
<path d="M92.1931 34.691C92.198 34.7731 91.9529 34.9806 91.7814 34.913C91.5952 34.8406 91.4041 34.7827 91.2962 34.5511C91.1688 34.2808 90.914 34.1409 90.5709 34.1892C90.3308 34.2229 90.0808 34.2085 89.8407 34.194C89.4143 34.165 89.0222 34.1795 88.8507 34.6669C88.8311 34.7296 88.7576 34.7972 88.6988 34.8165C88.5714 34.8551 88.4194 34.9082 88.3067 34.8696C88.1303 34.8117 88.047 34.6283 88.1205 34.4546C88.2479 34.1554 88.3998 33.8658 88.5616 33.586C88.9389 32.9393 89.3212 32.2927 89.7182 31.6557C90.0073 31.1973 90.1151 31.1876 90.4631 31.5592C90.5758 31.675 90.6591 31.8246 90.7424 31.9645C91.159 32.6691 91.5756 33.3785 91.9823 34.0878C92.0706 34.2519 92.1049 34.4401 92.1931 34.691ZM90.0612 33.6149C90.2327 33.6149 90.4043 33.639 90.566 33.6053C90.6395 33.5908 90.7473 33.4122 90.7277 33.3736C90.5366 33.031 90.321 32.7029 90.1102 32.3699C89.9583 32.6401 89.8064 32.9104 89.6495 33.1758C89.6152 33.2385 89.5466 33.2819 89.5123 33.3398C89.3947 33.5184 89.429 33.6004 89.6299 33.6149C89.7672 33.6197 89.9142 33.6149 90.0612 33.6149Z" fill="#486B81"/>
<path d="M126.107 34.9081C126.019 34.8309 125.843 34.7344 125.764 34.5896C125.598 34.2856 125.406 34.1408 125.034 34.1891C124.696 34.2325 124.353 34.2181 124.01 34.1939C123.613 34.165 123.284 34.2374 123.123 34.6331C123.015 34.8888 122.794 34.7875 122.628 34.7633C122.579 34.7585 122.535 34.5172 122.539 34.3918C122.544 34.2856 122.623 34.1794 122.682 34.0781C123.118 33.306 123.554 32.5339 124 31.7618C124.068 31.6412 124.171 31.5398 124.265 31.4288C124.387 31.2841 124.514 31.2985 124.627 31.4337C124.745 31.5784 124.867 31.728 124.956 31.8873C125.441 32.7414 125.921 33.5955 126.391 34.4545C126.514 34.6765 126.377 34.9322 126.107 34.9081ZM124.431 33.639C124.666 33.6148 124.907 33.5907 125.142 33.5666C125.039 33.3591 124.97 33.1275 124.833 32.9489C124.686 32.7559 124.706 32.447 124.421 32.3457C124.289 32.558 124.142 32.7607 124.024 32.9779C123.691 33.6148 123.696 33.6148 124.431 33.639Z" fill="#486B81"/>
<path d="M60.2557 33.3109C60.2557 32.9972 60.2655 32.6835 60.2508 32.3747C60.2361 31.9983 60.3684 31.7232 60.7409 31.6026C61.0301 31.5061 61.3192 31.3613 61.6133 31.342C62.27 31.3034 62.9316 31.3227 63.5883 31.3372C63.7451 31.342 63.9166 31.3999 64.0588 31.4723C64.1372 31.5157 64.2205 31.6557 64.2009 31.7281C64.1813 31.8004 64.0441 31.897 63.9607 31.9018C63.3285 31.9163 62.6914 31.9114 62.0592 31.9114C61.9122 31.9114 61.7652 31.897 61.6182 31.9163C61.4809 31.9356 61.3437 31.979 61.2163 32.0369C61.0007 32.1382 60.7997 32.476 60.8634 32.6498C60.9516 32.9007 61.1673 32.9103 61.3976 32.9055C62.0053 32.8959 62.6179 32.9007 63.2256 32.9055C63.3432 32.9055 63.4805 32.8959 63.5736 32.9489C63.6618 33.002 63.701 33.1275 63.7598 33.224C63.6863 33.2674 63.6079 33.3446 63.5344 33.3446C62.7551 33.3543 61.971 33.3639 61.1918 33.3495C60.9467 33.3446 60.8291 33.4025 60.8536 33.668C60.8732 33.9044 60.8585 34.1457 60.8585 34.387C60.8585 34.4835 60.8928 34.609 60.8438 34.6669C60.7654 34.773 60.638 34.8792 60.5155 34.8985C60.442 34.9081 60.3194 34.773 60.2606 34.6765C60.2165 34.6041 60.2459 34.4883 60.2459 34.3918C60.2557 34.0299 60.2557 33.668 60.2557 33.3109Z" fill="#486B81"/>
<path d="M128.938 31.3274C129.453 31.3274 129.962 31.3274 130.477 31.3274C130.595 31.3274 130.722 31.337 130.83 31.3756C131.016 31.4384 131.055 31.6266 130.933 31.7713C130.786 31.9402 130.634 32.0898 130.379 32.0319C130.355 32.0271 130.33 32.0271 130.306 32.0319C129.972 32.056 129.644 32.0802 129.311 32.1091C129.301 32.418 129.286 32.7268 129.281 33.0356C129.276 33.4941 129.286 33.9477 129.276 34.4061C129.271 34.7584 129.159 34.9128 128.928 34.9273C128.693 34.9369 128.556 34.7777 128.551 34.4351C128.541 33.7643 128.551 33.0887 128.546 32.418C128.541 32.0464 128.536 32.0416 128.134 32.0367C127.84 32.0319 127.546 32.0223 127.257 32.0416C127.051 32.056 126.963 31.9692 126.895 31.7955C126.797 31.5638 126.865 31.3708 127.11 31.3419C127.326 31.3177 127.546 31.3322 127.767 31.3322C128.159 31.3226 128.546 31.3274 128.938 31.3274Z" fill="#486B81"/>
<path d="M94.9281 34.918C94.5409 34.918 94.144 34.9614 93.7617 34.9083C93.301 34.8456 92.8158 34.7539 92.6149 34.2375C92.5708 34.1314 92.512 34.0204 92.512 33.9094C92.5022 33.1904 92.5071 32.4762 92.5071 31.7572C92.5071 31.733 92.5071 31.7089 92.5071 31.6848C92.5267 31.4628 92.6492 31.3325 92.8697 31.3325C93.0854 31.3325 93.2275 31.458 93.2275 31.6848C93.2324 31.9695 93.2275 32.259 93.2275 32.5437C93.2275 32.8526 93.2226 33.1663 93.2275 33.4751C93.2373 34.0107 93.4235 34.2038 93.9528 34.2086C94.5605 34.2134 95.1682 34.2086 95.7759 34.2086C95.8985 34.2086 96.021 34.2038 96.1386 34.2086C96.4326 34.2231 96.5846 34.3389 96.5895 34.5512C96.5993 34.7635 96.4473 34.8987 96.1533 34.9083C95.7514 34.9276 95.3398 34.918 94.9281 34.918Z" fill="#486B81"/>
<path d="M106.632 31.3273C107.147 31.3273 107.657 31.337 108.171 31.3225C108.362 31.3177 108.5 31.3852 108.598 31.5348C108.686 31.6796 108.583 31.8871 108.411 31.8968C108.093 31.9112 107.774 31.8968 107.461 31.9112C107.083 31.9257 107.01 31.9981 107.005 32.389C106.995 33.0115 106.99 33.6388 107.01 34.2613C107.019 34.5074 106.936 34.6715 106.755 34.8211C106.588 34.961 106.353 34.9128 106.299 34.7053C106.265 34.5701 106.275 34.4206 106.27 34.2806C106.27 33.6774 106.27 33.079 106.27 32.4758C106.27 32.0753 106.147 31.9402 105.74 31.9112C105.476 31.8919 105.201 31.9209 104.937 31.9016C104.839 31.8919 104.667 31.8002 104.672 31.7568C104.682 31.6313 104.731 31.4673 104.829 31.3997C104.932 31.3273 105.098 31.3322 105.24 31.3322C105.706 31.3225 106.167 31.3273 106.632 31.3273Z" fill="#486B81"/>
<path d="M132.058 33.1127C132.058 33.5663 132.063 34.0248 132.053 34.4784C132.048 34.7631 131.916 34.9127 131.7 34.9175C131.48 34.9223 131.333 34.7776 131.328 34.4977C131.318 33.5857 131.318 32.6784 131.328 31.7664C131.328 31.4817 131.465 31.3321 131.681 31.3273C131.901 31.3224 132.043 31.472 132.053 31.7471C132.068 32.2055 132.058 32.6591 132.058 33.1127Z" fill="#486B81"/>
<path d="M99.6825 33.1276C99.6825 33.5571 99.6923 33.9914 99.6776 34.4209C99.6727 34.5512 99.6335 34.7008 99.56 34.807C99.5159 34.8697 99.3297 34.9035 99.266 34.86C99.0846 34.7442 98.9425 34.5995 98.9474 34.3437C98.967 33.533 98.9523 32.7175 98.9572 31.9019C98.9572 31.8102 98.9621 31.6944 99.016 31.6365C99.1336 31.5014 99.2316 31.2794 99.462 31.3615C99.6286 31.4194 99.6923 31.5738 99.6874 31.7668C99.6727 32.2156 99.6825 32.674 99.6825 33.1276Z" fill="#486B81"/>
<path d="M78.7313 33.1229C78.7313 33.5524 78.7411 33.9867 78.7264 34.4161C78.7215 34.5464 78.6872 34.7008 78.6137 34.8022C78.5696 34.8649 78.3834 34.9035 78.3197 34.8649C78.1432 34.7491 77.9913 34.614 77.9962 34.3534C78.0158 33.5379 78.0011 32.7272 78.006 31.9116C78.006 31.8006 78.0305 31.6607 78.104 31.5883C78.2118 31.4822 78.3834 31.3519 78.5059 31.3663C78.6578 31.3905 78.746 31.5642 78.7362 31.762C78.7215 32.2108 78.7313 32.6644 78.7313 33.1229Z" fill="#486B81"/>
<path d="M24.9768 30.3981C24.9768 30.812 24.9397 31.2258 24.9892 31.6355C25.0387 32.0576 24.8365 32.3141 24.527 32.4962C23.6314 33.0176 22.7192 33.5101 21.8195 34.0232C21.0064 34.4908 20.2016 34.975 19.3927 35.4509C18.7199 35.844 18.0431 36.2289 17.3745 36.622C16.256 37.28 15.1416 37.9463 14.0231 38.6001C13.1812 39.0925 12.3268 39.5684 11.4849 40.0609C10.8452 40.4333 10.2178 40.8223 9.57809 41.1989C8.99203 41.5424 8.40596 41.8817 7.81989 42.221C6.88301 42.7549 5.94612 43.2887 5.00924 43.8184C4.92257 43.8681 4.83589 43.9177 4.74509 43.955C4.41904 44.0874 4.14664 43.9177 4.12188 43.5784C4.10537 43.3591 4.17141 43.1273 4.0187 42.9245C3.98981 42.8873 3.99806 42.8004 4.0187 42.7425C4.21268 42.1424 4.11363 41.5258 4.11775 40.9175C4.12188 40.603 4.25808 40.4375 4.51397 40.3009C5.09591 39.9947 5.67372 39.676 6.24741 39.3533C7.02746 38.9105 7.80338 38.4553 8.58343 38.0125C9.0333 37.7559 9.49142 37.5159 9.94542 37.2593C11.2826 36.5062 12.6157 35.7406 13.9571 34.9916C14.8073 34.5157 15.6782 34.0687 16.5325 33.6011C17.2671 33.1997 17.9977 32.7859 18.7241 32.3721C18.9717 32.2314 19.0749 32.0245 19.079 31.7182C19.0873 31.2134 18.9882 30.7044 19.1492 30.1954C19.1946 30.0547 19.1244 29.7898 18.8974 29.6491C18.1834 29.2063 17.4818 28.7428 16.7801 28.2835C15.1581 27.22 13.5402 26.144 11.91 25.0888C11.4766 24.8074 11.2661 24.4639 11.2785 23.9342C11.3033 22.8417 11.295 21.7492 11.2785 20.6568C11.2744 20.3795 11.3404 20.1436 11.5839 20.0443C11.8068 19.9533 12.0255 20.0071 12.2608 20.1643C14.5225 21.6748 16.8008 23.1687 19.079 24.6543C20.8867 25.8337 22.7027 27.0007 24.5187 28.1759C24.8489 28.3911 25.0387 28.6559 24.9933 29.0905C24.9397 29.5291 24.9768 29.9678 24.9768 30.3981Z" fill="#486B81"/>
<path d="M55.1443 33.0505C55.1443 32.9299 55.1688 32.8044 55.1394 32.6934C55.0316 32.2253 55.3012 31.9406 55.6099 31.6463C55.7716 31.4967 55.9334 31.4629 56.1343 31.4629C56.8155 31.4677 57.5016 31.4581 58.1828 31.4677C58.7023 31.4725 59.1924 31.9117 59.2218 32.4328C59.2512 32.8864 59.2316 33.3449 59.2267 33.8033C59.2218 34.1411 59.0356 34.4065 58.7709 34.5658C58.4328 34.7684 58.0848 34.9808 57.6437 34.9229C57.3546 34.8891 57.0557 34.8987 56.7665 34.9229C56.4431 34.947 56.1637 34.8601 55.8795 34.7154C55.3943 34.4693 55.0414 34.1652 55.1443 33.5572C55.1688 33.3931 55.1443 33.2194 55.1443 33.0505ZM57.1733 34.3486C57.3938 34.3486 57.6094 34.3534 57.83 34.3486C58.2662 34.339 58.4965 34.1266 58.5112 33.7165C58.521 33.3594 58.5259 32.9974 58.5112 32.6403C58.4965 32.1867 58.227 31.9165 57.7712 31.8972C57.4085 31.8827 57.0409 31.8972 56.6783 31.8924C55.9236 31.8875 55.6834 32.4714 55.752 33.0843C55.7765 33.3015 55.8452 33.5331 55.8648 33.7647C55.8893 34.1073 56.1098 34.3293 56.448 34.3486C56.6881 34.3583 56.9331 34.3486 57.1733 34.3486Z" fill="#FCFAF9"/>
<path d="M50.7412 33.1519C50.7412 32.7224 50.7412 32.2881 50.7412 31.8586C50.7412 31.5981 50.8736 31.4629 51.1382 31.4629C51.9909 31.4629 52.8437 31.4388 53.6915 31.4726C54.3777 31.4967 54.8089 32.2013 54.5247 32.8093C54.4316 33.0071 54.2649 33.2291 53.966 33.1953C53.7405 33.1712 53.5886 33.2774 53.5249 33.4752C53.4612 33.6634 53.5886 33.7937 53.7258 33.8999C53.8925 34.0302 54.0738 34.1363 54.2355 34.2715C54.2894 34.3149 54.3482 34.4596 54.3335 34.4693C54.2453 34.5369 54.113 34.643 54.0444 34.6189C53.8729 34.5513 53.716 34.4355 53.5739 34.3101C53.3877 34.1556 53.2162 33.9867 53.0544 33.8034C52.731 33.4366 52.334 33.287 51.8439 33.3305C51.4175 33.3642 51.3342 33.4221 51.3195 33.8227C51.3146 34.0157 51.3097 34.2039 51.3195 34.3969C51.3293 34.5948 51.2166 34.7154 51.05 34.7685C50.9128 34.8119 50.7461 34.6044 50.7363 34.3728C50.7363 33.9674 50.7412 33.5573 50.7412 33.1519ZM52.5251 32.9106C52.5251 32.9058 52.5251 32.9058 52.5251 32.9106C52.8388 32.9106 53.1524 32.9106 53.471 32.9106C53.4955 32.9106 53.52 32.9106 53.5445 32.9106C53.8092 32.9251 53.9415 32.7948 53.9758 32.5439C54.0297 32.1385 53.8386 31.9165 53.373 31.9021C52.8388 31.8828 52.3095 31.8924 51.7753 31.9021C51.4421 31.9069 51.3342 32.0034 51.3342 32.3171C51.3244 33.0216 51.2803 32.9106 51.8782 32.9155C52.089 32.9106 52.3095 32.9106 52.5251 32.9106Z" fill="#FCFAF9"/>
<path d="M46.3469 33.0068C46.3469 32.5774 46.3518 32.1431 46.3469 31.7136C46.3469 31.5399 46.4008 31.4578 46.5969 31.4578C47.4741 31.4675 48.3465 31.4675 49.2237 31.4578C49.4442 31.453 49.6256 31.5061 49.7089 31.6943C49.7628 31.8197 49.7971 31.9018 49.9441 31.8921C50.0912 31.8825 50.1647 31.9452 50.1598 32.0996C50.1549 32.2685 50.1549 32.4326 50.1598 32.6015C50.1696 32.8476 50.0618 32.9827 49.8118 33.0551C49.6158 33.113 49.4491 33.2916 49.2531 33.3205C48.9444 33.3688 48.6209 33.335 48.3073 33.335C47.9887 33.335 47.6751 33.3253 47.3614 33.3398C47.0379 33.3543 46.9497 33.446 46.9301 33.7693C46.9203 33.9382 46.9546 34.1119 46.9203 34.2712C46.8909 34.3966 46.8076 34.5269 46.7096 34.6138C46.5822 34.7248 46.3518 34.6138 46.3518 34.4449C46.342 33.9671 46.3469 33.4894 46.3469 33.0068ZM47.9593 33.0503C48.2288 33.0503 48.4935 33.0647 48.763 33.0454C48.9199 33.031 49.0718 32.9586 49.2237 32.9103C49.4835 32.8235 49.557 32.6063 49.5717 32.3795C49.5864 32.1479 49.4001 32.0658 49.2041 32.0128C49.0914 31.9838 48.9885 31.9018 48.8758 31.9018C48.3661 31.8873 47.8564 31.8873 47.3418 31.9066C47.2193 31.9114 47.0036 32.0031 46.9889 32.0803C46.9448 32.3795 46.9399 32.6883 46.984 32.9827C46.9938 33.0358 47.332 33.0406 47.5182 33.0551C47.6652 33.0599 47.8123 33.0503 47.9593 33.0503Z" fill="#FCFAF9"/>
<path d="M57.1717 34.3483C56.9266 34.3483 56.6865 34.358 56.4415 34.3435C56.1033 34.3242 55.8828 34.1022 55.8583 33.7596C55.8436 33.528 55.77 33.2963 55.7455 33.0792C55.6769 32.4663 55.9171 31.8824 56.6718 31.8872C57.0345 31.8921 57.402 31.8728 57.7647 31.8921C58.2254 31.9114 58.49 32.1816 58.5047 32.6352C58.5194 32.9923 58.5145 33.3542 58.5047 33.7113C58.4949 34.1215 58.2646 34.3338 57.8235 34.3435C57.6128 34.3531 57.3922 34.3483 57.1717 34.3483Z" fill="#F89842"/>
<path d="M52.5251 32.9108C52.3095 32.9108 52.0889 32.9108 51.8733 32.9108C51.2705 32.9059 51.3195 33.0217 51.3293 32.3124C51.3342 32.0035 51.442 31.907 51.7704 31.8974C52.3046 31.8877 52.8339 31.8781 53.3681 31.8974C53.8385 31.9119 54.0248 32.129 53.9709 32.5392C53.9366 32.7901 53.8042 32.9204 53.5396 32.9059C53.5151 32.9059 53.4906 32.9059 53.4661 32.9059C53.1524 32.9059 52.8388 32.9059 52.5251 32.9108C52.5251 32.9059 52.5251 32.9059 52.5251 32.9108Z" fill="#F89842"/>
<path d="M47.9581 33.0504C47.8111 33.0504 47.6641 33.0601 47.5219 33.0504C47.3357 33.036 46.9976 33.0311 46.9878 32.9781C46.9388 32.6837 46.9486 32.3749 46.9927 32.0757C47.0025 31.9985 47.2181 31.9068 47.3455 31.9019C47.8552 31.8826 48.3649 31.8875 48.8795 31.8971C48.9873 31.9019 49.0951 31.9792 49.2078 32.0081C49.4039 32.0612 49.5901 32.1384 49.5754 32.3749C49.5607 32.6017 49.4872 32.8236 49.2274 32.9057C49.0755 32.9539 48.9236 33.0263 48.7668 33.0408C48.4923 33.0649 48.2228 33.0504 47.9581 33.0504Z" fill="#F89842"/>
</g>
<defs>
<clipPath id="clip0">
<rect width="144" height="50" fill="white"/>
</clipPath>
</defs>
</svg>
