<svg width="120" height="50" viewBox="0 0 120 50" fill="none" xmlns="http://www.w3.org/2000/svg">
<g clip-path="url(#clip0)">
<path d="M112.41 31.0598C111.965 31.0598 111.599 30.9809 111.258 30.8758C110.918 30.7443 110.63 30.5603 110.394 30.3237C110.159 30.0871 110.001 29.7979 109.871 29.4561C109.74 29.1143 109.687 28.7463 109.687 28.2993V23.0676H108.771C108.64 23.0676 108.509 23.015 108.431 22.9362C108.326 22.8573 108.273 22.7258 108.273 22.5418V21.5165L109.818 21.2273L110.342 18.7297C110.42 18.4405 110.604 18.3091 110.918 18.3091H112.253V21.2536H114.74V23.0676H112.253V28.1153C112.253 28.3782 112.332 28.5885 112.436 28.7463C112.567 28.904 112.751 28.9829 112.986 28.9829C113.117 28.9829 113.222 28.9566 113.3 28.9303C113.379 28.904 113.457 28.8777 113.536 28.8252C113.588 28.7989 113.667 28.7463 113.719 28.72C113.772 28.6937 113.824 28.6674 113.876 28.6674C113.955 28.6674 114.007 28.6937 114.06 28.72C114.112 28.7463 114.164 28.8252 114.217 28.904L115.002 30.1397C114.636 30.4289 114.243 30.6392 113.798 30.7706C113.353 30.9809 112.881 31.0598 112.41 31.0598Z" fill="#2B2A29"/>
<path d="M99.5279 26.4588C99.6065 27.379 99.8683 28.0362 100.313 28.4569C100.758 28.8775 101.308 29.0878 102.015 29.0878C102.382 29.0878 102.67 29.0353 102.932 28.9564C103.193 28.8775 103.429 28.7724 103.612 28.6672C103.822 28.562 103.979 28.4569 104.136 28.378C104.293 28.2991 104.45 28.2466 104.607 28.2466C104.817 28.2466 104.974 28.3254 105.078 28.4832L105.838 29.4296C105.576 29.7451 105.262 30.008 104.921 30.2183C104.581 30.4286 104.241 30.5864 103.9 30.7178C103.534 30.8493 103.193 30.9282 102.827 30.9807C102.46 31.0333 102.12 31.0596 101.78 31.0596C101.099 31.0596 100.47 30.9544 99.8945 30.7178C99.3185 30.5075 98.7948 30.1657 98.3759 29.7188C97.9308 29.2719 97.5905 28.7461 97.3548 28.0888C97.093 27.4316 96.9883 26.6954 96.9883 25.8541C96.9883 25.1969 97.093 24.5659 97.3025 23.9875C97.5119 23.4092 97.8261 22.9096 98.245 22.4627C98.6377 22.0421 99.1352 21.674 99.7112 21.4374C100.287 21.1745 100.942 21.0693 101.675 21.0693C102.303 21.0693 102.853 21.1745 103.377 21.3585C103.9 21.5688 104.345 21.8318 104.712 22.2261C105.078 22.5942 105.393 23.0674 105.602 23.6195C105.812 24.1716 105.916 24.8025 105.916 25.4861C105.916 25.6701 105.916 25.8279 105.89 25.9593C105.864 26.0908 105.838 26.1959 105.785 26.2485C105.733 26.3274 105.681 26.38 105.602 26.4062C105.524 26.4325 105.419 26.4588 105.314 26.4588H99.5279ZM103.586 24.9077C103.586 24.6448 103.56 24.3819 103.481 24.1453C103.403 23.9087 103.298 23.6721 103.141 23.488C102.984 23.304 102.801 23.1463 102.539 23.0411C102.303 22.9359 102.015 22.8834 101.675 22.8834C101.046 22.8834 100.575 23.0674 100.235 23.4092C99.8945 23.7509 99.6588 24.2504 99.5541 24.9077H103.586Z" fill="#2B2A29"/>
<path d="M94.1616 18.4666C94.1616 18.6769 94.1092 18.8872 94.0307 19.0712C93.9521 19.2553 93.8212 19.413 93.6903 19.5708C93.5332 19.7022 93.3761 19.8337 93.1667 19.9125C92.9572 19.9914 92.7477 20.044 92.5383 20.044C92.3288 20.044 92.1194 19.9914 91.9361 19.9125C91.7528 19.8337 91.5696 19.7285 91.4387 19.5708C91.3077 19.4393 91.1768 19.2553 91.0983 19.0712C91.0198 18.8872 90.9674 18.6769 90.9674 18.4666C90.9674 18.2562 91.0198 18.0459 91.0983 17.8619C91.1768 17.6779 91.3077 17.4938 91.4387 17.3624C91.5696 17.2309 91.7528 17.0995 91.9361 17.0206C92.1194 16.9417 92.3288 16.8892 92.5383 16.8892C92.7739 16.8892 92.9834 16.9417 93.1667 17.0206C93.3761 17.0995 93.5332 17.2046 93.6903 17.3624C93.8474 17.4938 93.9521 17.6779 94.0307 17.8619C94.1092 18.0196 94.1616 18.23 94.1616 18.4666ZM93.8474 21.2007V31.0858C93.8474 31.5328 93.795 31.9271 93.6903 32.3215C93.5856 32.7158 93.4023 33.0576 93.1405 33.3205C92.8787 33.6097 92.5645 33.8463 92.1456 34.0041C91.7267 34.1618 91.2292 34.267 90.627 34.267C90.3914 34.267 90.1819 34.2407 89.9987 34.2144C89.7892 34.1881 89.6059 34.1355 89.3965 34.0829L89.5012 32.7158C89.5012 32.5844 89.5536 32.5055 89.6321 32.4529C89.7107 32.4004 89.8678 32.3741 90.1034 32.3741C90.339 32.3741 90.5223 32.3478 90.6794 32.3215C90.8365 32.2689 90.9412 32.2163 91.0459 32.1112C91.1245 32.006 91.203 31.8746 91.2292 31.7168C91.2554 31.5591 91.2816 31.3488 91.2816 31.0858V21.2007H93.8474Z" fill="#2B2A29"/>
<path d="M83.4001 30.9018V23.0673L82.6409 22.9359C82.4576 22.9096 82.3005 22.8307 82.1696 22.7256C82.0387 22.6204 81.9863 22.4889 81.9863 22.3049V21.2796H83.4001V20.6486C83.4001 20.0965 83.4787 19.597 83.662 19.1501C83.8452 18.7032 84.0809 18.3351 84.3951 18.0196C84.7092 17.7041 85.102 17.4675 85.5732 17.3098C86.0445 17.152 86.5681 17.0469 87.1441 17.0469C87.3798 17.0469 87.5892 17.0469 87.7987 17.0995C88.0081 17.1257 88.1914 17.1783 88.4009 17.2309L88.3485 18.5191C88.3485 18.7032 88.2438 18.8346 88.1129 18.8872C87.9558 18.9398 87.7987 18.9661 87.5892 18.9661C87.3274 18.9661 87.0918 18.9923 86.8823 19.0449C86.6729 19.0975 86.4896 19.2027 86.3587 19.3341C86.2278 19.4656 86.0969 19.6496 86.0183 19.8862C85.9398 20.1228 85.9136 20.412 85.9136 20.7275V21.2796H88.3223V23.0936H86.0183V30.9281L83.4001 30.9018Z" fill="#2B2A29"/>
<path d="M74.9959 30.9018V23.0673L74.2366 22.9359C74.0533 22.9096 73.8962 22.8307 73.7653 22.7256C73.6344 22.6204 73.582 22.4889 73.582 22.3049V21.2796H74.9959V20.6486C74.9959 20.0965 75.0744 19.597 75.2577 19.1501C75.4409 18.7032 75.6766 18.3351 75.9908 18.0196C76.3049 17.7041 76.6977 17.4675 77.1689 17.3098C77.6402 17.152 78.1639 17.0469 78.7399 17.0469C78.9755 17.0469 79.185 17.0469 79.3944 17.0995C79.6039 17.1257 79.7871 17.1783 79.9966 17.2309L79.9442 18.5191C79.9442 18.7032 79.8395 18.8346 79.7086 18.8872C79.5515 18.9398 79.3944 18.9661 79.185 18.9661C78.9231 18.9661 78.6875 18.9923 78.478 19.0449C78.2686 19.0975 78.0853 19.2027 77.9544 19.3341C77.8235 19.4656 77.6926 19.6496 77.614 19.8862C77.5355 20.1228 77.5093 20.412 77.5093 20.7275V21.2796H79.918V23.0936H77.614V30.9281L74.9959 30.9018Z" fill="#2B2A29"/>
<path d="M67.7955 26.853C67.1671 26.8793 66.6435 26.9319 66.2246 27.0108C65.8057 27.0896 65.4653 27.1948 65.2297 27.3262C64.9941 27.4577 64.8108 27.5891 64.7061 27.7469C64.6013 27.9046 64.549 28.0887 64.549 28.2727C64.549 28.6408 64.6537 28.9037 64.8632 29.0614C65.0726 29.2191 65.3606 29.298 65.7272 29.298C66.1461 29.298 66.5388 29.2191 66.853 29.0614C67.1672 28.9037 67.4813 28.667 67.7955 28.3516V26.853ZM62.533 22.5414C63.109 22.0156 63.7373 21.6476 64.4181 21.3847C65.0988 21.1218 65.8581 21.0166 66.6435 21.0166C67.2195 21.0166 67.7431 21.1218 68.1882 21.3058C68.6333 21.4898 69.0261 21.7527 69.3402 22.0945C69.6544 22.4363 69.89 22.8306 70.0733 23.3038C70.2304 23.7771 70.3351 24.2766 70.3351 24.8287V30.928H69.1308C68.8951 30.928 68.7119 30.9017 68.581 30.8228C68.4501 30.744 68.3453 30.6125 68.2668 30.4022L68.0573 29.7712C67.8217 29.9816 67.5861 30.1656 67.3504 30.3233C67.1148 30.4811 66.8792 30.6125 66.6435 30.7177C66.4079 30.8228 66.1461 30.9017 65.8581 30.9806C65.5701 31.0332 65.2559 31.0594 64.9155 31.0594C64.4966 31.0594 64.1039 31.0069 63.7635 30.9017C63.4232 30.7965 63.109 30.6125 62.8733 30.4022C62.6115 30.1919 62.4283 29.9027 62.2973 29.5609C62.1664 29.2191 62.0879 28.8511 62.0879 28.4041C62.0879 28.0361 62.1664 27.6943 62.3497 27.3262C62.533 26.9582 62.8472 26.6427 63.2923 26.3535C63.7373 26.0643 64.3133 25.8277 65.0464 25.6174C65.7795 25.4334 66.6959 25.3282 67.7955 25.3019V24.8024C67.7955 24.1977 67.6646 23.7508 67.4028 23.4616C67.141 23.1724 66.7744 23.0409 66.3032 23.0409C65.9366 23.0409 65.6486 23.0935 65.413 23.1724C65.1773 23.2513 64.9679 23.3564 64.7846 23.4353C64.6013 23.5405 64.4442 23.6193 64.2872 23.6982C64.1301 23.7771 63.9468 23.8297 63.7373 23.8297C63.5541 23.8297 63.397 23.7771 63.2923 23.6982C63.1613 23.6193 63.0566 23.4879 62.9781 23.3827L62.533 22.5414Z" fill="#2B2A29"/>
<path d="M56.8008 31.0598C56.3557 31.0598 55.9892 30.9809 55.6488 30.8758C55.3084 30.7443 55.0204 30.5603 54.7848 30.3237C54.5492 30.0871 54.3921 29.7979 54.2612 29.4561C54.1302 29.1143 54.0779 28.7463 54.0779 28.2993V23.0676H53.1615C53.0306 23.0676 52.8997 23.015 52.8212 22.9362C52.7164 22.8573 52.6641 22.7258 52.6641 22.5418V21.5165L54.2088 21.2273L54.7324 18.7297C54.811 18.4405 54.9942 18.3091 55.3084 18.3091H56.6437V21.2536H59.131V23.0676H56.6437V28.1153C56.6437 28.3782 56.6961 28.5885 56.827 28.7463C56.9579 28.904 57.1412 28.9829 57.3768 28.9829C57.5077 28.9829 57.6124 28.9566 57.691 28.9303C57.7695 28.904 57.8481 28.8777 57.9266 28.8252C57.979 28.7989 58.0575 28.7463 58.1099 28.72C58.1622 28.6937 58.2146 28.6674 58.267 28.6674C58.3455 28.6674 58.3979 28.6937 58.4502 28.72C58.5026 28.7463 58.555 28.8252 58.6073 28.904L59.3928 30.1397C59.0262 30.4289 58.6335 30.6392 58.1884 30.7706C57.7433 30.9809 57.2982 31.0598 56.8008 31.0598Z" fill="#2B2A29"/>
<path d="M49.2325 19.886C49.1539 20.0175 49.0492 20.1226 48.9707 20.2015C48.8921 20.2804 48.7612 20.3067 48.6303 20.3067C48.4994 20.3067 48.3423 20.2541 48.1852 20.1489C48.0281 20.0438 47.8449 19.9386 47.6354 19.8335C47.4259 19.7283 47.1903 19.6231 46.9023 19.518C46.6405 19.4128 46.3001 19.3865 45.9336 19.3865C45.279 19.3865 44.8078 19.518 44.4674 19.8335C44.1532 20.1226 43.9699 20.517 43.9699 20.9902C43.9699 21.2794 44.0485 21.5423 44.2318 21.7263C44.415 21.9367 44.6507 22.0944 44.9387 22.2521C45.2267 22.3836 45.567 22.515 45.9336 22.6465C46.3001 22.7517 46.6667 22.8831 47.0594 23.0146C47.4521 23.146 47.8187 23.3038 48.1852 23.4878C48.5518 23.6718 48.8921 23.9084 49.1801 24.1713C49.4681 24.4342 49.7038 24.776 49.887 25.1704C50.0703 25.5647 50.1489 26.0642 50.1489 26.6163C50.1489 27.2473 50.0441 27.8257 49.8347 28.3515C49.6252 28.9036 49.311 29.3768 48.8921 29.7711C48.4994 30.1655 47.9758 30.5073 47.3998 30.7176C46.8238 30.9279 46.1169 31.0594 45.3838 31.0594C44.9649 31.0594 44.5198 31.0068 44.1009 30.9279C43.6819 30.849 43.263 30.7176 42.8703 30.5598C42.4776 30.4021 42.111 30.2181 41.7445 30.0077C41.4041 29.7974 41.0899 29.5345 40.8281 29.2716L41.6398 27.9308C41.7183 27.8257 41.7969 27.7468 41.9016 27.6679C42.0063 27.5891 42.1372 27.5628 42.2681 27.5628C42.4252 27.5628 42.6085 27.6153 42.7918 27.7468C42.975 27.8782 43.1845 28.0097 43.4463 28.1674C43.6819 28.3252 43.9699 28.4566 44.2841 28.5881C44.5983 28.7195 44.991 28.7721 45.4361 28.7721C46.0907 28.7721 46.5881 28.6144 46.9547 28.3252C47.3212 28.036 47.4783 27.5891 47.4783 26.9844C47.4783 26.6426 47.3998 26.3534 47.2165 26.1431C47.0332 25.9328 46.7976 25.7487 46.5096 25.6173C46.2216 25.4858 45.9074 25.3544 45.5147 25.2492C45.1481 25.1441 44.7816 25.0389 44.3889 24.9075C43.9961 24.776 43.6296 24.6446 43.263 24.4605C42.8965 24.2765 42.5561 24.0662 42.2681 23.777C41.9801 23.4878 41.7445 23.1197 41.5612 22.6991C41.3779 22.2784 41.2994 21.7526 41.2994 21.1217C41.2994 20.6222 41.4041 20.1226 41.5874 19.6494C41.7969 19.1762 42.0849 18.7556 42.4776 18.3875C42.8703 18.0194 43.3416 17.7302 43.9176 17.4936C44.4936 17.257 45.1219 17.1519 45.855 17.1519C46.6667 17.1519 47.4259 17.2833 48.1329 17.5199C48.8398 17.7828 49.4158 18.1246 49.887 18.5715L49.2325 19.886Z" fill="#2B2A29"/>
<path d="M21.2953 22.9883C26.9244 21.2006 28.7047 24.2765 26.5055 29.2454C24.9607 32.7157 21.0335 35.6865 18.1535 36.7644C15.9018 37.6056 13.3884 38 10.744 38C8.67564 38 7 36.3174 7 34.2405V14.7595C7 12.6826 8.67564 11 10.744 11H20.7978C16.4516 12.4985 12.2364 15.3379 10.5345 19.7546C9.64436 22.0419 9.69673 24.5394 11.7127 26.5638C15.1425 30.0078 23.0495 28.8247 24.4371 23.6456L21.2953 22.9883Z" fill="#0091D2"/>
<path d="M30.1194 11.0264C26.035 11.0264 20.4845 12.078 16.8976 15.1013C12.8918 18.4402 11.923 24.4344 17.8925 24.9602C19.6728 25.1179 21.9507 24.7235 24.4379 23.6719L21.2961 22.9884C23.5216 21.1481 26.5063 20.7011 28.5485 21.6476C34.2038 24.3029 28.915 34.5298 20.6678 38.0001H30.1194C32.1878 38.0001 33.8634 36.3175 33.8634 34.2406V14.7596C33.8634 12.7352 32.1878 11.0264 30.1194 11.0264ZM21.2438 21.0166C19.5943 21.0166 18.2852 19.6758 18.2852 18.0458C18.2852 16.3896 19.6205 15.0751 21.2438 15.0751C22.8932 15.0751 24.2023 16.4159 24.2023 18.0458C24.2023 19.6758 22.8932 21.0166 21.2438 21.0166Z" fill="#EB6020"/>
</g>
<defs>
<clipPath id="clip0">
<rect x="7" y="11" width="108" height="27" fill="white"/>
</clipPath>
</defs>
</svg>
